<svg width="830" height="174" viewBox="0 0 830 174" fill="none" xmlns="http://www.w3.org/2000/svg">
<path d="M17.4204 74.7099H9.43586C6.90108 74.7099 5 72.6819 5 70.2738V9.43608C5 6.90118 7.02782 5 9.43586 5H17.4204C19.9552 5 21.8563 7.02792 21.8563 9.43608V70.2738C21.8563 72.6819 19.9552 74.7099 17.4204 74.7099Z" stroke="#4D3594" stroke-width="8.87171" stroke-miterlimit="10"/>
<path d="M93.0834 160.263C132.421 160.263 164.311 128.372 164.311 89.0321C164.311 49.6924 132.421 17.8013 93.0834 17.8013C53.7457 17.8013 21.8562 49.6924 21.8562 89.0321C21.8562 128.372 53.7457 160.263 93.0834 160.263Z" stroke="#4D3594" stroke-width="8.87171" stroke-miterlimit="10"/>
<path d="M330.719 147.969H327.677C326.536 147.969 325.522 145.941 325.522 143.533V89.4126C325.522 86.8777 326.536 84.9766 327.677 84.9766H330.719C331.859 84.9766 332.873 87.0045 332.873 89.4126V143.533C332.873 145.941 331.859 147.969 330.719 147.969Z" fill="#4D3594"/>
<path d="M623.359 173.825L620.824 172.051C619.81 171.417 620.19 169.136 621.584 167.108L652.255 122.493C653.649 120.465 655.55 119.325 656.564 119.958L659.099 121.733C660.113 122.367 659.733 124.648 658.339 126.676L627.668 171.29C626.274 173.318 624.372 174.459 623.359 173.825Z" fill="#4D3594"/>
<path d="M264.941 158.489C300.499 158.489 329.324 129.662 329.324 94.1024C329.324 58.5427 300.499 29.7158 264.941 29.7158C229.383 29.7158 200.558 58.5427 200.558 94.1024C200.558 129.662 229.383 158.489 264.941 158.489Z" stroke="#4D3594" stroke-width="8.87171" stroke-miterlimit="10"/>
<path d="M601.433 153.925C565.946 153.925 537.05 125.154 537.05 89.5389C537.05 53.9235 565.819 25.1523 601.433 25.1523C637.046 25.1523 665.816 53.9235 665.816 89.5389C665.689 125.154 636.92 153.925 601.433 153.925Z" stroke="#4D3594" stroke-width="8.87171" stroke-miterlimit="10"/>
<path d="M760.617 154.052C796.175 154.052 825 125.226 825 89.6659C825 54.1062 796.175 25.2793 760.617 25.2793C725.059 25.2793 696.233 54.1062 696.233 89.6659C696.233 125.226 725.059 154.052 760.617 154.052Z" stroke="#4D3594" stroke-width="8.87171" stroke-miterlimit="10"/>
<path d="M503.464 146.194V82.695C503.464 49.868 476.848 23.2515 444.023 23.2515C411.198 23.2515 384.583 49.868 384.583 82.695V146.194" stroke="#4D3594" stroke-width="8.87171" stroke-miterlimit="10"/>
</svg>
