<svg width="24" height="24" viewBox="0 0 24 24" fill="none" xmlns="http://www.w3.org/2000/svg">
<g clip-path="url(#clip0_270_1792)">
<path d="M12 2.16349C15.204 2.16349 15.584 2.17549 16.85 2.23349C20.102 2.38149 21.621 3.92449 21.769 7.15249C21.827 8.41749 21.838 8.79749 21.838 12.0015C21.838 15.2065 21.826 15.5855 21.769 16.8505C21.62 20.0755 20.105 21.6215 16.85 21.7695C15.584 21.8275 15.206 21.8395 12 21.8395C8.796 21.8395 8.416 21.8275 7.151 21.7695C3.891 21.6205 2.38 20.0705 2.232 16.8495C2.174 15.5845 2.162 15.2055 2.162 12.0005C2.162 8.79649 2.175 8.41749 2.232 7.15149C2.381 3.92449 3.896 2.38049 7.151 2.23249C8.417 2.17549 8.796 2.16349 12 2.16349ZM12 0.000488281C8.741 0.000488281 8.333 0.0144883 7.053 0.0724883C2.695 0.272488 0.273 2.69049 0.073 7.05249C0.014 8.33349 0 8.74149 0 12.0005C0 15.2595 0.014 15.6685 0.072 16.9485C0.272 21.3065 2.69 23.7285 7.052 23.9285C8.333 23.9865 8.741 24.0005 12 24.0005C15.259 24.0005 15.668 23.9865 16.948 23.9285C21.302 23.7285 23.73 21.3105 23.927 16.9485C23.986 15.6685 24 15.2595 24 12.0005C24 8.74149 23.986 8.33349 23.928 7.05349C23.732 2.69949 21.311 0.273488 16.949 0.0734883C15.668 0.0144883 15.259 0.000488281 12 0.000488281ZM12 5.83849C8.597 5.83849 5.838 8.59749 5.838 12.0005C5.838 15.4035 8.597 18.1635 12 18.1635C15.403 18.1635 18.162 15.4045 18.162 12.0005C18.162 8.59749 15.403 5.83849 12 5.83849ZM12 16.0005C9.791 16.0005 8 14.2105 8 12.0005C8 9.79149 9.791 8.00049 12 8.00049C14.209 8.00049 16 9.79149 16 12.0005C16 14.2105 14.209 16.0005 12 16.0005ZM18.406 4.15549C17.61 4.15549 16.965 4.80049 16.965 5.59549C16.965 6.39049 17.61 7.03549 18.406 7.03549C19.201 7.03549 19.845 6.39049 19.845 5.59549C19.845 4.80049 19.201 4.15549 18.406 4.15549Z" fill="#4D3594"/>
</g>
<defs>
<clipPath id="clip0_270_1792">
<rect width="24" height="24" fill="white" transform="translate(0 0.000488281)"/>
</clipPath>
</defs>
</svg>
