<svg width="24" height="24" viewBox="0 0 24 24" fill="none" xmlns="http://www.w3.org/2000/svg">
<g clip-path="url(#clip0_270_1796)">
<path d="M19 0.000488281H5C2.239 0.000488281 0 2.23949 0 5.00049V19.0005C0 21.7615 2.239 24.0005 5 24.0005H19C21.762 24.0005 24 21.7615 24 19.0005V5.00049C24 2.23949 21.762 0.000488281 19 0.000488281ZM8 19.0005H5V8.00049H8V19.0005ZM6.5 6.73249C5.534 6.73249 4.75 5.94249 4.75 4.96849C4.75 3.99449 5.534 3.20449 6.5 3.20449C7.466 3.20449 8.25 3.99449 8.25 4.96849C8.25 5.94249 7.467 6.73249 6.5 6.73249ZM20 19.0005H17V13.3965C17 10.0285 13 10.2835 13 13.3965V19.0005H10V8.00049H13V9.76549C14.396 7.17949 20 6.98849 20 12.2415V19.0005Z" fill="#4D3594"/>
</g>
<defs>
<clipPath id="clip0_270_1796">
<rect width="24" height="24" fill="white" transform="translate(0 0.000488281)"/>
</clipPath>
</defs>
</svg>
