<svg width="20" height="20" viewBox="0 0 20 20" fill="none" xmlns="http://www.w3.org/2000/svg">
<path d="M9 4.0001H12L15.29 0.700095C15.383 0.606367 15.4936 0.531972 15.6154 0.481204C15.7373 0.430435 15.868 0.404297 16 0.404297C16.132 0.404297 16.2627 0.430435 16.3846 0.481204C16.5064 0.531972 16.617 0.606367 16.71 0.700095L19.29 3.2901C19.4762 3.47746 19.5808 3.73091 19.5808 3.9951C19.5808 4.25928 19.4762 4.51273 19.29 4.7001L17 7.0001H9V9.0001C9 9.26531 8.89464 9.51967 8.7071 9.7072C8.51957 9.89474 8.26521 10.0001 8 10.0001C7.73478 10.0001 7.48043 9.89474 7.29289 9.7072C7.10535 9.51967 7 9.26531 7 9.0001V6.0001C7 5.46966 7.21071 4.96095 7.58578 4.58588C7.96086 4.21081 8.46956 4.0001 9 4.0001ZM3 9.0001V13.0001L0.709997 15.2901C0.523746 15.4775 0.419205 15.7309 0.419205 15.9951C0.419205 16.2593 0.523746 16.5127 0.709997 16.7001L3.29 19.2901C3.38296 19.3838 3.49356 19.4582 3.61542 19.509C3.73728 19.5598 3.86799 19.5859 4 19.5859C4.13201 19.5859 4.26271 19.5598 4.38457 19.509C4.50643 19.4582 4.61703 19.3838 4.71 19.2901L9 15.0001H13C13.2652 15.0001 13.5196 14.8947 13.7071 14.7072C13.8946 14.5197 14 14.2653 14 14.0001V13.0001H15C15.2652 13.0001 15.5196 12.8947 15.7071 12.7072C15.8946 12.5197 16 12.2653 16 12.0001V11.0001H17C17.2652 11.0001 17.5196 10.8947 17.7071 10.7072C17.8946 10.5197 18 10.2653 18 10.0001V9.0001H11V10.0001C11 10.5305 10.7893 11.0392 10.4142 11.4143C10.0391 11.7894 9.53043 12.0001 9 12.0001H7C6.46956 12.0001 5.96086 11.7894 5.58578 11.4143C5.21071 11.0392 5 10.5305 5 10.0001V7.0001L3 9.0001Z" fill="#4D3594"/>
</svg>
