<svg width="592" height="249" viewBox="0 0 592 249" fill="none" xmlns="http://www.w3.org/2000/svg">
<path d="M448.118 43.9212C449.922 43.9212 451.384 42.4588 451.384 40.6549C451.384 38.8509 449.922 37.3885 448.118 37.3885C446.314 37.3885 444.852 38.8509 444.852 40.6549C444.852 42.4588 446.314 43.9212 448.118 43.9212Z" fill="#4D3594"/>
<path d="M434.119 160.109C435.665 160.109 436.919 158.856 436.919 157.31C436.919 155.763 435.665 154.51 434.119 154.51C432.573 154.51 431.319 155.763 431.319 157.31C431.319 158.856 432.573 160.109 434.119 160.109Z" fill="#4D3594"/>
<path d="M144.815 57.9198C146.619 57.9198 148.081 56.4574 148.081 54.6534C148.081 52.8495 146.619 51.3871 144.815 51.3871C143.011 51.3871 141.549 52.8495 141.549 54.6534C141.549 56.4574 143.011 57.9198 144.815 57.9198Z" fill="#4D3594"/>
<path d="M163.48 141.445C165.027 141.445 166.28 140.191 166.28 138.645C166.28 137.099 165.027 135.845 163.48 135.845C161.934 135.845 160.681 137.099 160.681 138.645C160.681 140.191 161.934 141.445 163.48 141.445Z" fill="#4D3594"/>
<path d="M462.116 73.3181L471.449 69.5852L475.182 60.2528L478.915 69.5852L488.247 73.3181L478.915 77.0511L475.182 86.3835L471.449 77.0511L462.116 73.3181Z" fill="#4D3594"/>
<path d="M130.816 91.983L139.216 88.7167L142.482 80.3175L145.748 88.7167L154.147 91.983L145.748 95.2493L142.482 103.648L139.216 95.2493L130.816 91.983Z" fill="#4D3594"/>
<path opacity="0.55" d="M296 235.702C355.273 235.702 403.323 229.852 403.323 222.636C403.323 215.421 355.273 209.571 296 209.571C236.728 209.571 188.678 215.421 188.678 222.636C188.678 229.852 236.728 235.702 296 235.702Z" fill="#9BB2A7"/>
<path d="M392.124 40.6548H199.877C192.661 40.6548 186.812 46.5043 186.812 53.7201V204.905C186.812 212.121 192.661 217.97 199.877 217.97H392.124C399.34 217.97 405.189 212.121 405.189 204.905V53.7201C405.189 46.5043 399.34 40.6548 392.124 40.6548Z" fill="white"/>
<path d="M397.723 30.3892H194.277C190.154 30.3892 186.812 33.7318 186.812 37.8551V43.4545C186.812 47.5778 190.154 50.9204 194.277 50.9204H397.723C401.847 50.9204 405.189 47.5778 405.189 43.4545V37.8551C405.189 33.7318 401.847 30.3892 397.723 30.3892Z" fill="white"/>
<path d="M231.607 45.321C234.184 45.321 236.273 43.2319 236.273 40.6548C236.273 38.0778 234.184 35.9886 231.607 35.9886C229.03 35.9886 226.94 38.0778 226.94 40.6548C226.94 43.2319 229.03 45.321 231.607 45.321Z" fill="white"/>
<path d="M296 45.321C298.577 45.321 300.666 43.2319 300.666 40.6548C300.666 38.0778 298.577 35.9886 296 35.9886C293.423 35.9886 291.334 38.0778 291.334 40.6548C291.334 43.2319 293.423 45.321 296 45.321Z" fill="white"/>
<path d="M360.394 45.321C362.971 45.321 365.06 43.2319 365.06 40.6548C365.06 38.0778 362.971 35.9886 360.394 35.9886C357.817 35.9886 355.728 38.0778 355.728 40.6548C355.728 43.2319 357.817 45.321 360.394 45.321Z" fill="white"/>
<path d="M296 208.638C342.387 208.638 379.992 171.033 379.992 124.646C379.992 78.259 342.387 40.6548 296 40.6548C249.613 40.6548 212.009 78.259 212.009 124.646C212.009 171.033 249.613 208.638 296 208.638Z" stroke="#1E1E1E" stroke-width="5.59943" stroke-linecap="round" stroke-linejoin="round"/>
<path d="M296 40.6548C310.153 40.3167 324.162 43.5615 336.725 50.0878C349.289 56.6142 359.998 66.2102 367.859 77.9844" stroke="#4D3594" stroke-width="10.2656" stroke-linecap="round"/>
<path d="M263.337 68.652H328.664M263.337 180.641H328.664" stroke="#1E1E1E" stroke-width="5.59943" stroke-linecap="round" stroke-linejoin="round"/>
<path d="M263.337 68.652V81.7173C263.337 90.4275 268.625 98.5156 279.202 105.982L284.801 109.714C288.534 112.203 290.401 115.625 290.401 119.98C290.401 124.335 288.534 127.757 284.801 130.246L279.202 133.979C268.625 141.445 263.337 149.533 263.337 158.243V171.308" stroke="#1E1E1E" stroke-width="5.59943" stroke-linecap="round" stroke-linejoin="round"/>
<path d="M328.664 68.652V81.7173C328.664 90.4276 323.375 98.5156 312.798 105.982L307.199 109.714C303.466 112.203 301.6 115.625 301.6 119.98C301.6 124.335 303.466 127.757 307.199 130.246L312.798 133.979C323.375 141.445 328.664 149.533 328.664 158.243V171.308" stroke="#1E1E1E" stroke-width="5.59943" stroke-linecap="round" stroke-linejoin="round"/>
<path d="M274.535 94.7827C288.845 105.982 303.154 105.982 317.464 94.7827" stroke="#1E1E1E" stroke-width="5.59943" stroke-linecap="round" stroke-linejoin="round"/>
<path d="M274.535 154.51C288.845 143.311 303.154 143.311 317.464 154.51" stroke="#1E1E1E" stroke-width="5.59943" stroke-linecap="round" stroke-linejoin="round"/>
<path d="M284.801 102.249C292.267 107.226 299.733 107.226 307.199 102.249H284.801Z" fill="#4D3594"/>
<path d="M284.801 102.249C292.267 107.226 299.733 107.226 307.199 102.249" stroke="#1E1E1E" stroke-width="5.59943" stroke-linecap="round" stroke-linejoin="round"/>
<path d="M296 109.714V139.578V109.714Z" fill="black"/>
<path d="M296 109.714V139.578" stroke="#4D3594" stroke-width="3.73295" stroke-linecap="round"/>
<path d="M280.135 143.311C290.711 150.777 301.288 150.777 311.865 143.311H280.135Z" fill="#4D3594"/>
<path d="M280.135 143.311C290.711 150.777 301.288 150.777 311.865 143.311" stroke="#1E1E1E" stroke-width="5.59943" stroke-linecap="round" stroke-linejoin="round"/>
<path opacity="0.2" d="M424.787 124.646H457.45" stroke="#1E1E1E" stroke-width="4.66619" stroke-linecap="round" stroke-linejoin="round"/>
<path opacity="0.2" d="M424.787 108.781H449.985" stroke="#1E1E1E" stroke-width="4.66619" stroke-linecap="round" stroke-linejoin="round"/>
<path opacity="0.2" d="M424.787 140.511H449.985" stroke="#1E1E1E" stroke-width="4.66619" stroke-linecap="round" stroke-linejoin="round"/>
</svg>
