<svg width="153" height="32" viewBox="0 0 153 32" fill="none" xmlns="http://www.w3.org/2000/svg">
<g clip-path="url(#clip0_860_261)">
<path d="M3.11025 13.6802H1.637C1.1693 13.6802 0.818527 13.3061 0.818527 12.8618V1.63696C0.818527 1.16926 1.19269 0.818489 1.637 0.818489H3.11025C3.57795 0.818489 3.92873 1.19265 3.92873 1.63696V12.8618C3.92873 13.3061 3.57795 13.6802 3.11025 13.6802Z" stroke="#231F20" stroke-width="1.63695" stroke-miterlimit="10"/>
<path d="M17.0712 29.4651C24.3295 29.4651 30.2136 23.581 30.2136 16.3227C30.2136 9.0644 24.3295 3.18036 17.0712 3.18036C9.81289 3.18036 3.92886 9.0644 3.92886 16.3227C3.92886 23.581 9.81289 29.4651 17.0712 29.4651Z" stroke="#231F20" stroke-width="1.63695" stroke-miterlimit="10"/>
<path d="M60.9177 27.1967H60.3565C60.146 27.1967 59.9589 26.8226 59.9589 26.3782V16.3929C59.9589 15.9252 60.146 15.5744 60.3565 15.5744H60.9177C61.1282 15.5744 61.3152 15.9485 61.3152 16.3929V26.3782C61.3152 26.8226 61.1282 27.1967 60.9177 27.1967Z" fill="#231F20" stroke="#231F20" stroke-width="0.116925" stroke-miterlimit="10"/>
<path d="M114.914 31.9672L114.446 31.6399C114.259 31.5229 114.329 31.102 114.586 30.7278L120.246 22.4963C120.503 22.1222 120.854 21.9117 121.041 22.0286L121.508 22.356C121.695 22.4729 121.625 22.8939 121.368 23.268L115.709 31.4995C115.452 31.8737 115.101 32.0842 114.914 31.9672Z" fill="#231F20"/>
<path d="M48.7809 29.1377C55.3418 29.1377 60.6605 23.819 60.6605 17.2581C60.6605 10.6972 55.3418 5.37854 48.7809 5.37854C42.22 5.37854 36.9013 10.6972 36.9013 17.2581C36.9013 23.819 42.22 29.1377 48.7809 29.1377Z" stroke="#231F20" stroke-width="1.63695" stroke-miterlimit="10"/>
<path d="M110.868 28.2958C104.32 28.2958 98.9885 22.9874 98.9885 16.4162C98.9885 9.84507 104.297 4.53668 110.868 4.53668C117.439 4.53668 122.748 9.84507 122.748 16.4162C122.724 22.9874 117.416 28.2958 110.868 28.2958Z" stroke="#231F20" stroke-width="1.63695" stroke-miterlimit="10"/>
<path d="M140.24 28.3192C146.801 28.3192 152.12 23.0006 152.12 16.4397C152.12 9.87875 146.801 4.56009 140.24 4.56009C133.679 4.56009 128.36 9.87875 128.36 16.4397C128.36 23.0006 133.679 28.3192 140.24 28.3192Z" stroke="#231F20" stroke-width="1.63695" stroke-miterlimit="10"/>
<path d="M92.7916 26.8693V15.1535C92.7916 9.09675 87.8807 4.1859 81.824 4.1859C75.7673 4.1859 70.8565 9.09675 70.8565 15.1535V26.8693" stroke="#231F20" stroke-width="1.63695" stroke-miterlimit="10"/>
</g>
<defs>
<clipPath id="clip0_860_261">
<rect width="152.938" height="32" fill="white"/>
</clipPath>
</defs>
</svg>
