<svg width="81" height="24" viewBox="0 0 81 24" fill="none" xmlns="http://www.w3.org/2000/svg">
<path d="M14.9227 8.84643C14.1035 5.81175 11.0497 3.57888 7.71168 3.86997C6.79831 3.94841 5.92679 4.21336 5.1424 4.62995C4.6282 4.90187 4.1628 5.24002 3.74795 5.62525V1.30244H1.536V14.5358L1.52031 17.5042L7.99232 17.4868C10.9695 17.4781 13.6799 15.6636 14.7118 12.8712C15.186 11.5865 15.2836 10.1851 14.9227 8.84643ZM12.6637 12.1652C11.963 14.0617 10.1223 15.294 8.10213 15.2993L3.74795 15.3097V10.3211C3.87171 8.74882 4.76067 7.31427 6.16558 6.56824C6.69895 6.28586 7.29161 6.10632 7.91213 6.05229C10.1799 5.85533 12.2506 7.3718 12.8084 9.4321C13.0524 10.3402 12.9879 11.292 12.6655 12.1635L12.6637 12.1652Z" fill="#4B2CA9"/>
<path d="M30.6866 3.9091V3.9056L29.6354 3.9091H28.6716V3.91258L24.1796 3.92479C21.1868 3.9335 18.4606 5.75674 17.4235 8.56483C16.946 9.85644 16.8483 11.2666 17.2127 12.6122C18.0372 15.6626 21.1067 17.9077 24.4637 17.6165C25.3824 17.5381 26.2574 17.2714 27.0469 16.8532C27.6588 16.5289 28.2027 16.114 28.6733 15.6348V17.5521H30.7947V3.9091H30.6882H30.6866ZM28.4641 10.7768C28.4537 12.4937 27.5333 14.0956 26.0169 14.8991C25.4799 15.1833 24.8857 15.3645 24.2615 15.4186C21.9817 15.6155 19.8986 14.0921 19.3392 12.0196C19.0934 11.1062 19.1596 10.1493 19.4838 9.27251C20.188 7.36734 22.0391 6.12802 24.0698 6.12104L28.4868 6.11059L28.4641 10.7768Z" fill="#4B2CA9"/>
<path d="M32.8499 11.0493V17.5474H35.1735V11.0493C35.1735 8.29353 37.4081 6.05891 40.1638 6.05891C42.9196 6.05891 45.1542 8.29353 45.1542 11.0493V17.5474H47.4778V11.0493C47.4778 7.01063 44.2042 3.73541 40.1638 3.73541C36.1252 3.73541 32.8499 7.00889 32.8499 11.0493Z" fill="#4B2CA9"/>
<path d="M65.4697 10.7205C65.4697 14.5779 68.5969 17.7032 72.4525 17.7032H72.829C76.6864 17.7032 79.8118 14.5762 79.8118 10.7205C79.8118 6.86313 76.6847 3.73781 72.829 3.73781H72.4525C68.5952 3.73781 65.4697 6.86487 65.4697 10.7205ZM72.829 15.425H72.4525C69.8536 15.425 67.748 13.3177 67.748 10.7205C67.748 8.12162 69.8553 6.01601 72.4525 6.01601H72.829C75.4279 6.01601 77.5335 8.12336 77.5335 10.7205C77.5335 13.3194 75.4263 15.425 72.829 15.425Z" fill="#4B2CA9"/>
<path d="M63.4357 20.203V10.6213C63.4375 10.5289 63.4375 10.4382 63.4357 10.3459V10.3441C63.4252 9.82992 63.3521 9.31745 63.2161 8.81197C62.3881 5.74766 59.3047 3.49213 55.9336 3.78496C55.0115 3.86339 54.1313 4.13183 53.3381 4.5519C51.0949 5.74068 49.7317 8.11299 49.7177 10.6509C49.7056 12.95 49.6917 15.2491 49.6794 17.5481C51.8601 17.5448 54.0389 17.5412 56.2194 17.5378C58.1159 17.5326 59.906 16.8005 61.2307 15.5524V20.203H49.6829V22.4149H63.4428C63.4428 21.6776 63.4392 20.9403 63.4375 20.203H63.4357ZM60.9362 12.1639C60.2285 14.0778 58.3704 15.3223 56.3292 15.3293L51.8913 15.3397L51.9158 10.6544C51.9263 8.93049 52.8501 7.3199 54.3735 6.51286C54.9122 6.22874 55.51 6.04571 56.1358 5.99167C58.4262 5.79298 60.5178 7.32338 61.0808 9.40461C61.3283 10.3215 61.2621 11.2836 60.9362 12.1639Z" fill="#4B2CA9"/>
<path d="M56.5613 12.0341C57.4874 12.0341 58.2381 11.2834 58.2381 10.3573C58.2381 9.4312 57.4874 8.68046 56.5613 8.68046C55.6352 8.68046 54.8845 9.4312 54.8845 10.3573C54.8845 11.2834 55.6352 12.0341 56.5613 12.0341Z" fill="#4B2CA9"/>
</svg>
