<svg width="497" height="94" viewBox="0 0 497 94" fill="none" xmlns="http://www.w3.org/2000/svg">
<path fill-rule="evenodd" clip-rule="evenodd" d="M443.788 60.3063C432.913 58.9122 435.948 69.1106 447.834 75.2002C468.571 85.692 468.065 90.6811 446.316 90.6811C442.27 90.6811 438.983 90.9746 438.983 91.4148C438.983 91.9284 420.016 99.1185 377.025 87.0126C277.386 58.9122 198.484 56.8586 114.777 80.19C78.8668 87.6003 48.5225 90.2409 63.9488 78.2083C68.248 74.8333 11.0922 87.3061 56.8654 65.3687C65.4636 61.26 66.2223 60.5997 62.1761 60.5997C59.6472 60.5997 54.8423 59.9394 51.8076 59.2057C48.52 58.3987 47.7613 57.0054 50.2902 55.9782C59.1414 52.2364 76.8462 47.8335 87.9734 44.752L106.687 39.5428L72.2917 43.5054C2.74685 51.5027 -21.5299 47.7601 21.2078 35.5808C82.4073 18.119 205.565 11.8092 296.1 21.2738C318.101 23.5483 319.115 23.2548 300.401 19.9532C256.145 12.1761 238.441 11.0755 156.504 11.0755C89.2353 11.0755 82.1544 10.7828 85.6949 8.28824C86.4535 7.77465 97.0775 6.3799 109.469 5.27936C245.271 -6.75319 371.716 2.27197 421.536 27.3642C428.87 31.1061 431.396 31.7656 435.948 31.4722C449.857 30.5184 481.721 37.2683 491.584 43.2846C509.033 54.5101 479.951 65.0019 443.788 60.3063ZM312.032 58.0318C335.298 62.8008 340.103 55.7581 322.4 52.3097C297.617 47.4674 261.454 46 226.049 46.4402C223.52 46.4402 223.27 47.54 225.799 47.6868C270.813 49.8878 291.548 53.7764 312.032 58.0318ZM148.667 64.4157C150.943 64.2689 193.429 56.3443 219.476 56.9313C232.627 57.2247 241.728 54.8036 221.497 53.9231C198.737 52.9693 182.552 52.3831 160.55 57.4456C155.24 58.6929 146.138 64.6358 148.667 64.4157ZM192.67 22.0809C164.093 22.5945 122.617 25.9695 92.0171 30.0782C83.166 31.2521 33.3466 39.837 36.6342 41.3044C39.1631 42.4049 92.0171 35.0672 105.926 33.4531C119.835 31.839 148.414 29.4178 163.841 28.3907C229.086 23.9885 233.132 21.2738 192.67 22.0809ZM204.303 33.2338C186.095 35.2147 167.884 37.7819 149.423 41.4504C149.676 41.4504 242.487 31.839 329.734 43.7982C346.678 46.146 349.459 45.4123 340.355 41.8906C302.422 27.5102 238.696 29.4186 204.303 33.2338ZM359.069 20.8336C355.276 18.2657 333.277 13.7902 314.057 10.7821C280.676 5.49947 236.926 5.35272 235.661 5.6462C233.132 6.23315 269.296 9.46141 283.711 11.0022C296.608 12.3228 320.883 16.138 329.987 17.6788C349.712 20.9804 362.61 23.1081 359.069 20.8336Z" fill="#D6C8FF"/>
</svg>
