<svg width="474" height="289" viewBox="0 0 474 289" fill="none" xmlns="http://www.w3.org/2000/svg">
<g clip-path="url(#clip0_270_1884)">
<path d="M129.609 49.1445C132.166 49.1445 134.238 47.0721 134.238 44.5156C134.238 41.9592 132.166 39.8867 129.609 39.8867C127.053 39.8867 124.98 41.9592 124.98 44.5156C124.98 47.0721 127.053 49.1445 129.609 49.1445Z" fill="#4D3594"/>
<path d="M157.383 25.0742C159.428 25.0742 161.086 23.4163 161.086 21.3711C161.086 19.3259 159.428 17.668 157.383 17.668C155.338 17.668 153.68 19.3259 153.68 21.3711C153.68 23.4163 155.338 25.0742 157.383 25.0742Z" fill="#4D3594"/>
<path d="M194.414 17.668C197.482 17.668 199.969 15.1811 199.969 12.1133C199.969 9.04551 197.482 6.55859 194.414 6.55859C191.346 6.55859 188.859 9.04551 188.859 12.1133C188.859 15.1811 191.346 17.668 194.414 17.668Z" fill="#4D3594"/>
<path d="M286.992 16.7422C289.549 16.7422 291.621 14.6698 291.621 12.1133C291.621 9.55681 289.549 7.48438 286.992 7.48438C284.436 7.48438 282.363 9.55681 282.363 12.1133C282.363 14.6698 284.436 16.7422 286.992 16.7422Z" fill="#4D3594"/>
<path d="M324.023 34.332C326.069 34.332 327.727 32.6741 327.727 30.6289C327.727 28.5837 326.069 26.9258 324.023 26.9258C321.978 26.9258 320.32 28.5837 320.32 30.6289C320.32 32.6741 321.978 34.332 324.023 34.332Z" fill="#4D3594"/>
<path d="M342.539 57.9395C344.84 57.9395 346.705 56.0743 346.705 53.7734C346.705 51.4726 344.84 49.6074 342.539 49.6074C340.238 49.6074 338.373 51.4726 338.373 53.7734C338.373 56.0743 340.238 57.9395 342.539 57.9395Z" fill="#4D3594"/>
<path d="M240.703 24.1484C242.237 24.1484 243.48 22.905 243.48 21.3711C243.48 19.8372 242.237 18.5938 240.703 18.5938C239.169 18.5938 237.926 19.8372 237.926 21.3711C237.926 22.905 239.169 24.1484 240.703 24.1484Z" fill="#4D3594"/>
<path d="M129.609 72.2891C175.898 16.7422 296.25 16.7422 342.539 72.2891" stroke="#4D3594" stroke-width="8.33203" stroke-linecap="round" stroke-linejoin="round"/>
<path d="M148.125 264.852H325.875C343.156 264.852 351.797 255.594 351.797 237.078V172.273C351.797 125.984 313.531 102.84 237 102.84C160.469 102.84 122.203 125.984 122.203 172.273V237.078C122.203 255.594 130.844 264.852 148.125 264.852Z" fill="white" stroke="#303030" stroke-width="6.48047" stroke-linecap="round" stroke-linejoin="round"/>
<path d="M152.754 181.531C138.867 181.531 138.867 209.305 157.383 218.562" stroke="#303030" stroke-width="6.48047" stroke-linecap="round" stroke-linejoin="round"/>
<path d="M323.098 181.531C337.91 181.531 337.91 209.305 319.395 218.562" stroke="#303030" stroke-width="6.48047" stroke-linecap="round" stroke-linejoin="round"/>
<path d="M194.414 135.242C194.414 116.727 231.445 116.727 249.961 135.242" stroke="#303030" stroke-width="6.48047" stroke-linecap="round" stroke-linejoin="round"/>
<path d="M226.816 158.387C236.074 167.645 249.961 167.645 259.219 158.387" stroke="#303030" stroke-width="6.48047" stroke-linecap="round" stroke-linejoin="round"/>
<path d="M120.352 274.109H351.797" stroke="#303030" stroke-width="6.48047" stroke-linecap="round" stroke-linejoin="round"/>
<path d="M148.125 270.406L152.754 283.367M159.234 270.406L162.938 283.367" stroke="#303030" stroke-width="6.48047" stroke-linecap="round" stroke-linejoin="round"/>
<path d="M320.32 270.406L324.023 283.367M329.578 270.406L335.133 285.219" stroke="#303030" stroke-width="6.48047" stroke-linecap="round" stroke-linejoin="round"/>
<path d="M164.789 182.457L227.742 232.449L346.242 100.988" stroke="#303030" stroke-width="27.7734" stroke-linecap="round" stroke-linejoin="round"/>
<path d="M164.789 182.457L227.742 232.449L346.242 100.988" stroke="#4D3594" stroke-width="18.5156" stroke-linecap="round" stroke-linejoin="round"/>
</g>
<defs>
<clipPath id="clip0_270_1884">
<rect width="474" height="288.844" fill="white" transform="translate(0 0.078125)"/>
</clipPath>
</defs>
</svg>
