<svg width="16" height="16" viewBox="0 0 16 16" fill="none" xmlns="http://www.w3.org/2000/svg">
<g filter="url(#filter0_f_1046_1351)">
<path d="M-0.115723 8.05371C-0.107408 9.32804 0.248445 10.6428 0.787089 11.7042V11.7115C1.17628 12.4823 1.7082 13.0912 2.31405 13.6945L5.9732 12.3321C5.28091 11.9733 5.17528 11.7534 4.67902 11.3522C4.17188 10.8304 3.79391 10.2313 3.55853 9.52891H3.54904L3.55853 9.5216C3.40367 9.05776 3.3884 8.5654 3.38268 8.05371H-0.115723Z" fill="url(#paint0_radial_1046_1351)"/>
</g>
<g filter="url(#filter1_f_1046_1351)">
<path d="M8.00705 -0.0585938C7.64538 1.23794 7.78366 2.4982 8.00705 3.23148C8.42469 3.2318 8.82702 3.2826 9.20851 3.3838C10.0831 3.61581 10.7016 4.07277 11.0807 4.43421L13.4265 2.09014C12.0369 0.78996 10.3645 -0.0565453 8.00705 -0.0585938Z" fill="url(#paint1_radial_1046_1351)"/>
</g>
<g filter="url(#filter2_f_1046_1351)">
<path d="M7.99886 -0.0683594C6.22485 -0.0683985 4.58702 0.495611 3.24486 1.44881C2.74652 1.80273 2.2892 2.21157 1.88199 2.66621C1.77531 3.68745 2.68057 4.94266 4.47327 4.93227C5.34307 3.89984 6.6295 3.23186 8.06129 3.23186C8.0626 3.23186 8.06387 3.23197 8.06518 3.23197L8.0067 -0.0681258C8.00406 -0.0681275 8.0015 -0.0683594 7.99886 -0.0683594Z" fill="url(#paint2_radial_1046_1351)"/>
</g>
<g filter="url(#filter3_f_1046_1351)">
<path d="M13.8544 8.42266L12.271 9.53265C12.2015 9.96794 12.0454 10.3961 11.8169 10.7866C11.5551 11.234 11.2315 11.5746 10.8998 11.8339C9.90824 12.6093 8.75288 12.7689 7.94857 12.7695C7.11724 14.2144 6.97149 14.938 8.00704 16.1041C9.28842 16.1032 10.4244 15.8671 11.4264 15.4251C12.1508 15.1056 12.7925 14.6889 13.3735 14.1533C14.1413 13.4456 14.7426 12.5703 15.153 11.5632C15.5634 10.5561 15.7829 9.41731 15.7829 8.18262L13.8544 8.42266Z" fill="url(#paint3_radial_1046_1351)"/>
</g>
<g filter="url(#filter4_f_1046_1351)">
<path d="M7.88965 6.39941V9.70888H15.5079C15.5749 9.25564 15.7965 8.66913 15.7965 8.18359C15.7965 7.61619 15.7407 6.92313 15.6459 6.39941H7.88965Z" fill="#3086FF"/>
</g>
<g filter="url(#filter5_f_1046_1351)">
<path d="M1.91848 2.54883C1.44836 3.0737 1.04673 3.66119 0.728285 4.29655C0.181954 5.38315 -0.117188 6.70416 -0.117188 7.99887C-0.117188 8.01711 -0.115708 8.03496 -0.115588 8.05318C0.126365 8.52656 3.22656 8.43591 3.38282 8.05318C3.38262 8.03532 3.38065 8.01791 3.38065 8.00001C3.38065 7.46898 3.46857 7.07757 3.62883 6.59748C3.82652 6.0053 4.13607 5.45998 4.5319 4.99014C4.62162 4.87325 4.86097 4.62195 4.93079 4.47122C4.95739 4.4138 4.8825 4.38158 4.87831 4.36137C4.87363 4.33877 4.77322 4.35694 4.75072 4.34011C4.6793 4.28665 4.53787 4.25873 4.45198 4.23392C4.26841 4.18088 3.96419 4.06392 3.79521 3.94267C3.26108 3.55942 2.42752 3.10162 1.91848 2.54883Z" fill="url(#paint4_radial_1046_1351)"/>
</g>
<g filter="url(#filter6_f_1046_1351)">
<path d="M3.80669 4.3641C5.04529 5.12969 5.40148 3.97766 6.22498 3.61717L4.79248 0.585938C4.26554 0.811934 3.76767 1.09271 3.30573 1.42078C2.61587 1.91072 2.00666 2.50859 1.50342 3.18898L3.80669 4.3641Z" fill="url(#paint5_radial_1046_1351)"/>
</g>
<g filter="url(#filter7_f_1046_1351)">
<path d="M4.31086 12.0976C2.64821 12.7101 2.38791 12.7321 2.23486 13.7835C2.52733 14.0747 2.84156 14.3441 3.17548 14.5884C4.07149 15.2438 5.79502 16.1166 7.99926 16.1166C8.00185 16.1166 8.00433 16.1164 8.00692 16.1164V12.7114C8.00525 12.7114 8.00333 12.7115 8.00166 12.7115C7.17625 12.7115 6.51666 12.4903 5.84038 12.1056C5.67364 12.0108 5.37113 12.2655 5.21735 12.1516C5.00525 11.9946 4.49482 12.2869 4.31086 12.0976Z" fill="url(#paint6_radial_1046_1351)"/>
</g>
<g opacity="0.5" filter="url(#filter8_f_1046_1351)">
<path d="M7.0332 12.6045V16.0577C7.34161 16.0946 7.66258 16.1169 7.99928 16.1169C8.33682 16.1169 8.66336 16.0993 8.98067 16.0667V12.6278C8.62508 12.6898 8.29017 12.7119 8.00168 12.7119C7.66942 12.7119 7.34629 12.6724 7.0332 12.6045Z" fill="url(#paint7_linear_1046_1351)"/>
</g>
<defs>
<filter id="filter0_f_1046_1351" x="-0.117048" y="8.05239" width="6.09152" height="5.64328" filterUnits="userSpaceOnUse" color-interpolation-filters="sRGB">
<feFlood flood-opacity="0" result="BackgroundImageFix"/>
<feBlend mode="normal" in="SourceGraphic" in2="BackgroundImageFix" result="shape"/>
<feGaussianBlur stdDeviation="0.000662746" result="effect1_foregroundBlur_1046_1351"/>
</filter>
<filter id="filter1_f_1046_1351" x="7.78334" y="-0.0599192" width="5.64474" height="4.49582" filterUnits="userSpaceOnUse" color-interpolation-filters="sRGB">
<feFlood flood-opacity="0" result="BackgroundImageFix"/>
<feBlend mode="normal" in="SourceGraphic" in2="BackgroundImageFix" result="shape"/>
<feGaussianBlur stdDeviation="0.000662746" result="effect1_foregroundBlur_1046_1351"/>
</filter>
<filter id="filter2_f_1046_1351" x="1.87221" y="-0.0696849" width="6.19406" height="5.00363" filterUnits="userSpaceOnUse" color-interpolation-filters="sRGB">
<feFlood flood-opacity="0" result="BackgroundImageFix"/>
<feBlend mode="normal" in="SourceGraphic" in2="BackgroundImageFix" result="shape"/>
<feGaussianBlur stdDeviation="0.000662746" result="effect1_foregroundBlur_1046_1351"/>
</filter>
<filter id="filter3_f_1046_1351" x="7.27602" y="8.18129" width="8.50802" height="7.92453" filterUnits="userSpaceOnUse" color-interpolation-filters="sRGB">
<feFlood flood-opacity="0" result="BackgroundImageFix"/>
<feBlend mode="normal" in="SourceGraphic" in2="BackgroundImageFix" result="shape"/>
<feGaussianBlur stdDeviation="0.000662746" result="effect1_foregroundBlur_1046_1351"/>
</filter>
<filter id="filter4_f_1046_1351" x="7.88832" y="6.39809" width="7.90939" height="3.31222" filterUnits="userSpaceOnUse" color-interpolation-filters="sRGB">
<feFlood flood-opacity="0" result="BackgroundImageFix"/>
<feBlend mode="normal" in="SourceGraphic" in2="BackgroundImageFix" result="shape"/>
<feGaussianBlur stdDeviation="0.000662746" result="effect1_foregroundBlur_1046_1351"/>
</filter>
<filter id="filter5_f_1046_1351" x="-0.118513" y="2.5475" width="5.05636" height="5.82882" filterUnits="userSpaceOnUse" color-interpolation-filters="sRGB">
<feFlood flood-opacity="0" result="BackgroundImageFix"/>
<feBlend mode="normal" in="SourceGraphic" in2="BackgroundImageFix" result="shape"/>
<feGaussianBlur stdDeviation="0.000662746" result="effect1_foregroundBlur_1046_1351"/>
</filter>
<filter id="filter6_f_1046_1351" x="1.4941" y="0.576619" width="4.74032" height="4.05379" filterUnits="userSpaceOnUse" color-interpolation-filters="sRGB">
<feFlood flood-opacity="0" result="BackgroundImageFix"/>
<feBlend mode="normal" in="SourceGraphic" in2="BackgroundImageFix" result="shape"/>
<feGaussianBlur stdDeviation="0.00465938" result="effect1_foregroundBlur_1046_1351"/>
</filter>
<filter id="filter7_f_1046_1351" x="2.23354" y="12.0827" width="5.77462" height="4.03488" filterUnits="userSpaceOnUse" color-interpolation-filters="sRGB">
<feFlood flood-opacity="0" result="BackgroundImageFix"/>
<feBlend mode="normal" in="SourceGraphic" in2="BackgroundImageFix" result="shape"/>
<feGaussianBlur stdDeviation="0.000662746" result="effect1_foregroundBlur_1046_1351"/>
</filter>
<filter id="filter8_f_1046_1351" x="7.03188" y="12.6032" width="1.94992" height="3.51535" filterUnits="userSpaceOnUse" color-interpolation-filters="sRGB">
<feFlood flood-opacity="0" result="BackgroundImageFix"/>
<feBlend mode="normal" in="SourceGraphic" in2="BackgroundImageFix" result="shape"/>
<feGaussianBlur stdDeviation="0.000662746" result="effect1_foregroundBlur_1046_1351"/>
</filter>
<radialGradient id="paint0_radial_1046_1351" cx="0" cy="0" r="1" gradientTransform="matrix(-0.325831 -7.96794 11.715 -0.478149 5.89995 13.5744)" gradientUnits="userSpaceOnUse">
<stop offset="0.141612" stop-color="#1ABD4D"/>
<stop offset="0.247515" stop-color="#6EC30D"/>
<stop offset="0.311547" stop-color="#8AC502"/>
<stop offset="0.366013" stop-color="#A2C600"/>
<stop offset="0.445673" stop-color="#C8C903"/>
<stop offset="0.540305" stop-color="#EBCB03"/>
<stop offset="0.615636" stop-color="#F7CD07"/>
<stop offset="0.699345" stop-color="#FDCD04"/>
<stop offset="0.771242" stop-color="#FDCE05"/>
<stop offset="0.860566" stop-color="#FFCE0A"/>
</radialGradient>
<radialGradient id="paint1_radial_1046_1351" cx="0" cy="0" r="1" gradientTransform="matrix(5.53352 -1.35704e-05 -7.77758e-06 7.13951 13.2071 4.26461)" gradientUnits="userSpaceOnUse">
<stop offset="0.408458" stop-color="#FB4E5A"/>
<stop offset="1" stop-color="#FF4540"/>
</radialGradient>
<radialGradient id="paint2_radial_1046_1351" cx="0" cy="0" r="1" gradientTransform="matrix(-7.75286 4.28995 5.82692 10.5107 10.1849 -1.10183)" gradientUnits="userSpaceOnUse">
<stop offset="0.231273" stop-color="#FF4541"/>
<stop offset="0.311547" stop-color="#FF4540"/>
<stop offset="0.457516" stop-color="#FF4640"/>
<stop offset="0.540305" stop-color="#FF473F"/>
<stop offset="0.699346" stop-color="#FF5138"/>
<stop offset="0.771242" stop-color="#FF5B33"/>
<stop offset="0.860566" stop-color="#FF6C29"/>
<stop offset="1" stop-color="#FF8C18"/>
</radialGradient>
<radialGradient id="paint3_radial_1046_1351" cx="0" cy="0" r="1" gradientTransform="matrix(-14.06 -18.3365 -6.77483 5.18501 8.1223 15.0686)" gradientUnits="userSpaceOnUse">
<stop offset="0.131546" stop-color="#0CBA65"/>
<stop offset="0.209784" stop-color="#0BB86D"/>
<stop offset="0.297297" stop-color="#09B479"/>
<stop offset="0.396257" stop-color="#08AD93"/>
<stop offset="0.477124" stop-color="#0AA6A9"/>
<stop offset="0.568425" stop-color="#0D9CC6"/>
<stop offset="0.667385" stop-color="#1893DD"/>
<stop offset="0.768727" stop-color="#258BF1"/>
<stop offset="0.858506" stop-color="#3086FF"/>
</radialGradient>
<radialGradient id="paint4_radial_1046_1351" cx="0" cy="0" r="1" gradientTransform="matrix(-0.994996 8.56811 11.8581 1.37445 7.31977 1.44225)" gradientUnits="userSpaceOnUse">
<stop offset="0.366013" stop-color="#FF4E3A"/>
<stop offset="0.457516" stop-color="#FF8A1B"/>
<stop offset="0.540305" stop-color="#FFA312"/>
<stop offset="0.615636" stop-color="#FFB60C"/>
<stop offset="0.771242" stop-color="#FFCD0A"/>
<stop offset="0.860566" stop-color="#FECF0A"/>
<stop offset="0.915033" stop-color="#FECF08"/>
<stop offset="1" stop-color="#FDCD01"/>
</radialGradient>
<radialGradient id="paint5_radial_1046_1351" cx="0" cy="0" r="1" gradientTransform="matrix(-2.87605 3.17785 -8.97171 -8.1044 5.92056 1.35384)" gradientUnits="userSpaceOnUse">
<stop offset="0.315904" stop-color="#FF4C3C"/>
<stop offset="0.603818" stop-color="#FF692C"/>
<stop offset="0.726837" stop-color="#FF7825"/>
<stop offset="0.884534" stop-color="#FF8D1B"/>
<stop offset="1" stop-color="#FF9F13"/>
</radialGradient>
<radialGradient id="paint6_radial_1046_1351" cx="0" cy="0" r="1" gradientTransform="matrix(-7.75286 -4.28995 5.82692 -10.5107 10.1851 17.1015)" gradientUnits="userSpaceOnUse">
<stop offset="0.231273" stop-color="#0FBC5F"/>
<stop offset="0.311547" stop-color="#0FBC5F"/>
<stop offset="0.366013" stop-color="#0FBC5E"/>
<stop offset="0.457516" stop-color="#0FBC5D"/>
<stop offset="0.540305" stop-color="#12BC58"/>
<stop offset="0.699346" stop-color="#28BF3C"/>
<stop offset="0.771242" stop-color="#38C02B"/>
<stop offset="0.860566" stop-color="#52C218"/>
<stop offset="0.915033" stop-color="#67C30F"/>
<stop offset="1" stop-color="#86C504"/>
</radialGradient>
<linearGradient id="paint7_linear_1046_1351" x1="7.0332" y1="14.3607" x2="8.98067" y2="14.3607" gradientUnits="userSpaceOnUse">
<stop stop-color="#0FBC5C"/>
<stop offset="1" stop-color="#0CBA65"/>
</linearGradient>
</defs>
</svg>
