<svg width="659" height="131" viewBox="0 0 659 131" fill="none" xmlns="http://www.w3.org/2000/svg">
<path d="M189.5 70.6116L188.449 71.6819L189.5 70.6116ZM659 46.1116L641.922 43.2228L647.959 59.4571L659 46.1116ZM1 15.1116L1.84303 16.3523C2.74092 15.7422 3.70036 15.1354 4.72007 14.5366L3.96046 13.2431L3.20084 11.9497C2.12686 12.5804 1.11163 13.2222 0.15697 13.8709L1 15.1116ZM10.2043 10.0312L10.8206 11.3988C12.813 10.5009 14.9544 9.64611 17.2385 8.85304L16.7465 7.43602L16.2545 6.01901C13.8884 6.84052 11.664 7.72815 9.58805 8.66364L10.2043 10.0312ZM23.4558 5.40136L23.8358 6.85244C25.9898 6.28838 28.242 5.78118 30.5883 5.34219L30.3125 3.86777L30.0366 2.39336C27.6208 2.84534 25.2992 3.36807 23.0758 3.95029L23.4558 5.40136ZM37.2612 2.80653L37.4391 4.29594C39.6731 4.02907 41.9781 3.82418 44.3515 3.68915L44.2663 2.19157L44.1811 0.693991C41.7459 0.832538 39.379 1.04287 37.0833 1.31712L37.2612 2.80653ZM51.2782 2.00019L51.2756 3.50018C53.5373 3.50412 55.8529 3.57131 58.2203 3.70761L58.3066 2.21009L58.3928 0.712566C55.9697 0.573071 53.5984 0.504217 51.2808 0.500188L51.2782 2.00019ZM65.3223 2.80291L65.1567 4.29373C67.4112 4.54424 69.7076 4.85723 72.0442 5.23719L72.2849 3.75663L72.5257 2.27608C70.1393 1.88804 67.7929 1.56819 65.488 1.31208L65.3223 2.80291ZM79.1825 5.05057L78.8709 6.51784C81.0938 6.98999 83.3498 7.52265 85.6375 8.11933L86.0161 6.66789L86.3947 5.21644C84.0628 4.60825 81.7622 4.06503 79.4942 3.5833L79.1825 5.05057ZM92.7732 8.59006L92.3317 10.0236C94.5097 10.6945 96.7142 11.4234 98.944 12.2131L99.4448 10.7991L99.9455 9.38517C97.6767 8.58168 95.4328 7.83972 93.2148 7.15652L92.7732 8.59006ZM106.024 13.278L105.468 14.671C107.591 15.5187 109.735 16.4216 111.9 17.3819L112.508 16.0108L113.116 14.6396C110.917 13.6642 108.739 12.7467 106.581 11.8849L106.024 13.278ZM118.888 18.9799L118.231 20.3284C120.281 21.3272 122.349 22.3776 124.433 23.4816L125.135 22.1561L125.837 20.8306C123.724 19.7109 121.626 18.6451 119.545 17.6314L118.888 18.9799ZM131.278 25.5386L130.533 26.8409C132.52 27.9767 134.521 29.1613 136.536 30.3962L137.32 29.1174L138.104 27.8385C136.063 26.5878 134.036 25.3876 132.022 24.2364L131.278 25.5386ZM143.266 32.8839L142.445 34.1394C144.373 35.3999 146.312 36.7066 148.263 38.0608L149.118 36.8286L149.974 35.5965C148.001 34.2266 146.038 32.9043 144.087 31.6285L143.266 32.8839ZM154.807 40.8908L153.92 42.1001C155.769 43.4571 157.628 44.8569 159.496 46.3007L160.413 45.1139L161.33 43.9272C159.443 42.4683 157.564 41.0534 155.695 39.6814L154.807 40.8908ZM165.943 49.4964L164.998 50.6609C166.779 52.1072 168.568 53.5938 170.365 55.1213L171.336 53.9786L172.308 52.8358C170.494 51.2937 168.688 49.7927 166.889 48.3319L165.943 49.4964ZM176.627 58.5771L175.631 59.6986C177.361 61.2356 179.098 62.8109 180.842 64.4253L181.861 63.3247L182.88 62.2241C181.122 60.5958 179.369 59.0065 177.623 57.4556L176.627 58.5771ZM186.945 68.1272L185.905 69.2076C186.752 70.0231 187.6 70.8478 188.449 71.6819L189.5 70.6116L190.551 69.5413C189.695 68.7005 188.84 67.869 187.986 67.0468L186.945 68.1272ZM189.5 70.6116L188.449 71.6819C189.288 72.5061 190.132 73.3203 190.981 74.1244L192.013 73.0359L193.045 71.9473C192.209 71.1552 191.378 70.3532 190.551 69.5413L189.5 70.6116ZM197.115 77.7064L196.122 78.8306C197.86 80.3656 199.615 81.8611 201.386 83.3177L202.339 82.1591L203.292 81.0005C201.547 79.5663 199.82 78.0938 198.108 76.5822L197.115 77.7064ZM207.775 86.4669L206.865 87.6592C208.708 89.0663 210.569 90.4336 212.445 91.7617L213.312 90.5373L214.178 89.313C212.331 88.0056 210.5 86.6598 208.685 85.2746L207.775 86.4669ZM219.035 94.4335L218.213 95.6886C220.157 96.9609 222.118 98.1934 224.094 99.3868L224.869 98.1028L225.645 96.8188C223.7 95.644 221.77 94.4308 219.856 93.1784L219.035 94.4335ZM230.842 101.564L230.114 102.875C232.145 104.004 234.192 105.094 236.254 106.145L236.936 104.809L237.617 103.472C235.586 102.437 233.571 101.364 231.571 100.253L230.842 101.564ZM243.134 107.831L242.5 109.191C244.604 110.172 246.724 111.115 248.857 112.021L249.443 110.64L250.029 109.259C247.928 108.367 245.84 107.438 243.767 106.472L243.134 107.831ZM255.837 113.227L255.298 114.627C257.462 115.459 259.638 116.256 261.828 117.016L262.32 115.599L262.812 114.182C260.654 113.433 258.508 112.648 256.376 111.827L255.837 113.227ZM268.879 117.759L268.433 119.191C270.641 119.879 272.862 120.532 275.094 121.151L275.495 119.706L275.896 118.26C273.694 117.649 271.503 117.005 269.325 116.327L268.879 117.759ZM282.18 121.45L281.823 122.907C284.067 123.456 286.322 123.973 288.587 124.458L288.901 122.991L289.215 121.524C286.978 121.046 284.752 120.535 282.536 119.993L282.18 121.45ZM295.675 124.339L295.403 125.814C297.675 126.233 299.956 126.621 302.246 126.979L302.478 125.497L302.71 124.015C300.446 123.662 298.191 123.278 295.947 122.864L295.675 124.339ZM309.31 126.473L309.117 127.961C311.409 128.257 313.71 128.525 316.019 128.765L316.174 127.273L316.329 125.781C314.045 125.544 311.769 125.279 309.502 124.985L309.31 126.473ZM323.038 127.902L322.919 129.398C325.226 129.581 327.54 129.737 329.86 129.868L329.944 128.37L330.029 126.872C327.731 126.743 325.44 126.589 323.157 126.407L323.038 127.902ZM336.822 128.679L336.771 130.178C339.08 130.257 341.396 130.31 343.716 130.339L343.735 128.839L343.754 127.339C341.454 127.31 339.16 127.258 336.872 127.18L336.822 128.679ZM350.63 128.855L350.641 130.355C352.948 130.337 355.26 130.296 357.576 130.233L357.535 128.734L357.494 127.234C355.197 127.297 352.905 127.337 350.618 127.355L350.63 128.855ZM364.437 128.48L364.506 129.978C366.807 129.873 369.112 129.746 371.419 129.598L371.324 128.101L371.228 126.604C368.938 126.751 366.651 126.877 364.368 126.982L364.437 128.48ZM378.225 127.6L378.346 129.096C380.639 128.91 382.934 128.704 385.232 128.48L385.086 126.987L384.941 125.494C382.659 125.717 380.38 125.921 378.104 126.105L378.225 127.6ZM391.962 126.262L392.131 127.752C394.419 127.493 396.71 127.216 399.001 126.921L398.81 125.433L398.619 123.946C396.342 124.238 394.066 124.514 391.793 124.771L391.962 126.262ZM405.652 124.504L405.864 125.989C408.148 125.662 410.432 125.319 412.717 124.96L412.484 123.478L412.251 121.997C409.98 122.353 407.709 122.694 405.439 123.019L405.652 124.504ZM419.291 122.363L419.544 123.842C421.819 123.454 424.095 123.05 426.37 122.633L426.099 121.158L425.828 119.682C423.565 120.098 421.302 120.498 419.039 120.884L419.291 122.363ZM432.875 119.872L433.164 121.344C435.427 120.901 437.689 120.444 439.95 119.974L439.645 118.505L439.34 117.037C437.09 117.504 434.839 117.959 432.587 118.4L432.875 119.872ZM446.398 117.063L446.719 118.528C448.971 118.034 451.221 117.528 453.469 117.01L453.133 115.548L452.796 114.086C450.558 114.602 448.318 115.106 446.076 115.598L446.398 117.063ZM459.854 113.964L460.206 115.422C462.448 114.881 464.688 114.33 466.925 113.768L466.559 112.313L466.194 110.858C463.966 111.418 461.736 111.967 459.503 112.505L459.854 113.964ZM473.245 110.6L473.624 112.052C475.858 111.469 478.088 110.876 480.313 110.274L479.922 108.826L479.53 107.378C477.313 107.978 475.091 108.568 472.866 109.149L473.245 110.6ZM486.578 106.995L486.982 108.44C489.204 107.818 491.421 107.189 493.634 106.551L493.219 105.11L492.803 103.668C490.598 104.304 488.388 104.931 486.174 105.55L486.578 106.995ZM499.851 103.17L500.277 104.608C502.486 103.953 504.69 103.291 506.887 102.622L506.45 101.187L506.013 99.7517C503.823 100.419 501.626 101.079 499.424 101.732L499.851 103.17ZM513.063 99.1474L513.51 100.579C515.712 99.8919 517.907 99.1984 520.096 98.4993L519.639 97.0705L519.183 95.6416C517.001 96.3387 514.812 97.0302 512.616 97.7155L513.063 99.1474ZM526.215 94.9468L526.681 96.3728C528.878 95.6557 531.067 94.9336 533.249 94.2073L532.775 92.7841L532.301 91.361C530.125 92.0855 527.941 92.8057 525.75 93.5209L526.215 94.9468ZM539.308 90.588L539.79 92.0085C541.985 91.264 544.171 90.5158 546.347 89.7646L545.858 88.3466L545.368 86.9287C543.197 87.6783 541.016 88.4248 538.826 89.1675L539.308 90.588ZM552.352 86.0872L552.848 87.5027C555.04 86.7338 557.223 85.9626 559.394 85.1898L558.891 83.7766L558.388 82.3635C556.221 83.1348 554.043 83.9044 551.855 84.6717L552.352 86.0872ZM565.374 81.4536L565.883 82.8646C568.065 82.0775 570.235 81.2895 572.393 80.5014L571.879 79.0924L571.364 77.6834C569.21 78.4703 567.043 79.2569 564.865 80.0426L565.374 81.4536ZM578.356 76.7136L578.876 78.1208C581.047 77.3189 583.206 76.5177 585.351 75.718L584.827 74.3125L584.302 72.9071C582.161 73.7057 580.005 74.5058 577.837 75.3065L578.356 76.7136ZM591.304 71.8867L591.832 73.2906C593.994 72.4773 596.142 71.6663 598.274 70.8587L597.743 69.456L597.211 68.0532C595.081 68.8601 592.936 69.6702 590.776 70.4827L591.304 71.8867ZM604.224 66.9931L604.758 68.3948C606.914 67.5732 609.053 66.7559 611.174 65.944L610.638 64.5432L610.102 63.1423C607.982 63.9537 605.844 64.7704 603.69 65.5915L604.224 66.9931ZM617.125 62.056L617.663 63.4563C619.817 62.6296 621.95 61.8096 624.064 60.9974L623.526 59.5972L622.987 58.1971C620.874 59.0092 618.741 59.8291 616.588 60.6556L617.125 62.056ZM630.019 57.102L630.557 58.5023C632.714 57.6738 634.848 56.8549 636.958 56.0469L636.422 54.6461L635.885 53.2453C633.774 54.0538 631.639 54.873 629.481 55.7017L630.019 57.102ZM642.917 52.165L643.451 53.5668C645.62 52.7406 647.761 51.9278 649.874 51.1298L649.344 49.7266L648.814 48.3233C646.698 49.1225 644.554 49.9363 642.383 50.7632L642.917 52.165Z" fill="#4D3594"/>
</svg>
