<svg width="592" height="270" viewBox="0 0 592 270" fill="none" xmlns="http://www.w3.org/2000/svg">
<path d="M425.366 118.468C423.68 121.324 402.344 135.78 389.401 137.92C386.897 138.334 384.162 138.476 381.986 137.168C380.701 136.395 379.743 135.191 378.834 133.999C376.754 131.273 374.77 128.475 372.886 125.611C371.896 124.105 370.914 122.534 370.578 120.764C369.688 116.077 373.465 111.867 377.199 108.898C385.782 102.071 395.831 97.0983 406.465 94.4155C408.347 93.9406 410.343 93.5385 412.207 94.0779C415.234 94.9535 417.044 98.0159 418.198 100.947C419.353 103.879 420.254 107.085 422.562 109.23C423.089 109.719 427.051 115.611 425.366 118.468Z" fill="white"/>
<path fill-rule="evenodd" clip-rule="evenodd" d="M310.718 243.008C290.011 246.549 299.88 231.499 302.736 212.661C307.428 181.708 313.215 134.669 313.215 134.669C313.215 134.669 316.988 206.345 316.988 223.798C316.988 241.251 313.214 242.581 310.718 243.008Z" fill="white"/>
<path d="M288.592 225.955C289.12 230.939 289.677 236.029 291.796 240.572C290.64 230.285 289.484 219.998 288.329 209.711C288.186 208.441 288.228 206.824 289.397 206.306C290.386 217.922 291.86 229.496 293.814 240.989C294.047 242.353 291.997 243.133 290.846 242.364C289.695 241.596 289.327 240.1 289.065 238.741C287.158 228.837 286.109 218.768 285.935 208.684C283.506 209.163 281.803 211.517 281.312 213.942C280.821 216.368 281.294 218.873 281.768 221.302C283.29 229.122 284.813 236.942 286.336 244.761C287.049 248.419 287.761 252.198 286.975 255.84C283.952 242.041 281.522 228.111 279.694 214.104C256.503 228.285 226.62 230.922 201.304 221.022C195.775 218.859 190.284 215.994 186.632 211.313C183.755 207.626 182.22 203.048 181.416 198.441C178.559 182.078 184.412 165.388 192.357 150.801C195.371 145.266 198.804 139.501 198.561 133.204C198.477 131.036 198.01 128.635 199.276 126.873C199.455 127.199 190.987 66.6245 194.384 53.2257C202.562 20.9689 229.129 16.6004 246.139 16.9983C257.552 17.2652 329.895 31.6422 340.348 51.1933C354.085 76.8891 351.168 98.4927 348.729 112.738C348.002 116.979 313.224 134.356 313.214 134.444C311.226 152.928 297.883 193.203 286.693 208.049C287.326 214.017 287.959 219.986 288.592 225.955Z" fill="white"/>
<path fill-rule="evenodd" clip-rule="evenodd" d="M121.606 150.746C115.083 148.142 107.311 148.914 101.431 152.75C100.861 153.121 100.043 152.707 99.761 152.09C99.4792 151.472 99.5846 150.753 99.7287 150.09C101.607 141.447 109.088 134.834 117.408 131.795C125.728 128.756 134.829 128.748 143.673 129.267C144.551 129.319 145.468 129.387 146.217 129.847C146.965 130.308 147.469 131.291 147.096 132.086C143.617 139.494 140.996 147.304 139.303 155.31C139.028 156.608 137.683 157.469 136.358 157.577C135.033 157.686 133.735 157.197 132.533 156.631C128.786 154.867 125.452 152.281 121.606 150.746Z" fill="white"/>
<path d="M257.421 263.521C261.231 263.415 265.064 264.257 268.479 265.951C267.566 267.263 265.732 267.447 264.135 267.507C250.223 268.035 236.31 268.564 222.398 269.091C222.016 269.044 221.944 268.452 222.215 268.178C222.486 267.905 222.909 267.869 223.294 267.85C236.875 267.188 250.456 266.526 264.037 265.864C261.683 265.648 259.386 264.834 257.421 263.521ZM325.44 229.017C325.754 228.554 326.461 228.309 326.885 228.674C325.213 236.41 323.542 244.148 321.87 251.884C323.525 250.655 325.615 250.024 327.674 250.134C325.85 251.493 324.463 253.429 323.761 255.592C324.971 254.66 327.033 255.309 327.491 256.766C328.197 256.245 329.364 256.598 329.662 257.423C329.961 258.247 329.29 259.266 328.414 259.317C343.956 259.454 359.499 259.59 375.041 259.726C365.358 261.561 355.398 260.152 345.544 259.97C339.141 259.852 332.729 260.257 326.392 261.179C326.952 260.078 327.355 258.896 327.586 257.682C315.375 261.11 302.428 257.053 289.746 257.132C286.319 257.153 282.216 257.951 280.955 261.137C280.4 257.665 279.847 254.193 279.292 250.72C278.787 253.52 278.282 256.32 277.777 259.12C277.654 259.806 277.494 260.554 276.948 260.988C276.246 261.546 275.158 261.321 274.487 260.725C273.817 260.129 273.467 259.261 273.152 258.422C271.296 253.466 269.871 248.348 268.896 243.146C268.834 249.541 271.456 255.618 274.029 261.472C272.908 261.162 271.787 260.851 270.666 260.541C271.573 261.678 272.481 262.816 273.388 263.954C270.58 262.901 267.86 261.617 265.264 260.118C266.334 261.612 267.405 263.107 268.476 264.601C265.85 263.362 263.547 261.446 261.852 259.09C264.225 258.446 266.881 258.943 268.861 260.401C267.943 259.092 267.525 257.441 267.71 255.853C268.977 256.965 270.245 258.077 271.512 259.189C269.372 254.29 267.886 249.106 267.107 243.817C266.953 242.766 267.069 241.339 268.108 241.118C269.178 240.891 269.852 242.214 270.13 243.271C271.321 247.816 272.514 252.36 273.705 256.905C274.177 255.305 274.65 253.705 275.122 252.105C275.352 254.026 275.987 255.897 276.973 257.562C277.304 254.168 278.337 250.843 279.988 247.859C280.349 251.182 280.71 254.505 281.07 257.828C291.907 254.469 303.523 258.014 314.858 258.493C317.147 258.59 319.57 258.525 321.529 257.338C323.488 256.15 324.718 253.475 323.592 251.48C322.425 253.375 320.92 255.06 319.168 256.432C320.779 252.951 322.424 249.324 322.396 245.488C320.786 248.673 319.176 251.858 317.565 255.043C316.735 253.649 315.904 252.255 315.073 250.862C313.959 252.851 314.3 255.55 315.874 257.2C314.501 256.28 313.128 255.361 311.755 254.441C311.547 254.998 311.339 255.556 311.131 256.113C309.791 255.687 308.704 254.543 308.347 253.184C309.747 252.616 311.442 252.85 312.637 253.775C313.515 251.656 314.395 249.538 315.273 247.419C315.887 249.192 316.5 250.966 317.113 252.74C321.798 246.329 324.592 238.555 325.062 230.63C325.095 230.071 325.127 229.481 325.44 229.017ZM325.521 257.215C325.345 256.649 324.382 256.603 324.153 257.151L324.017 257.099C323.846 257.301 323.845 257.626 324.015 257.829C324.556 257.748 325.077 257.536 325.521 257.215ZM198.402 126.873C199.797 129.41 200.328 132.412 199.889 135.274C223.897 134.241 247.942 134.032 271.965 134.65C272.245 135.755 270.645 136.268 269.506 136.251C247.087 135.916 224.657 136.299 202.263 137.396C201.554 137.431 200.809 137.477 200.208 137.854C199.576 138.251 199.207 138.949 198.867 139.614C192.511 152.05 186.134 164.667 183.062 178.291C181.482 185.297 180.877 192.965 184.115 199.376C185.344 201.808 187.081 203.956 189.021 205.869C199.434 216.141 215.028 219.29 229.653 219.045C238.988 218.888 248.302 217.546 257.301 215.061C266.841 212.427 276.355 208.276 282.867 200.823C286.691 196.446 289.29 191.145 291.566 185.798C295.912 175.587 299.247 164.945 301.503 154.08C302.915 154.377 302.935 156.375 302.609 157.781C298.576 175.182 293.887 193.731 280.602 205.672C268.602 216.456 251.693 219.8 235.585 220.702C226.28 221.223 216.829 221.06 207.816 218.688C198.804 216.316 190.199 211.571 184.478 204.215C186.146 210.578 191.799 215.119 197.684 218.057C213.135 225.773 231.381 225.365 248.442 222.683C259.808 220.897 271.474 217.964 280.318 210.607C287.879 204.318 292.697 195.337 296.323 186.196C300.338 176.078 303.122 165.472 304.597 154.687C305.515 154.107 306.195 155.729 306.079 156.809C304.091 175.293 297.009 193.203 285.818 208.049C286.451 214.017 287.085 219.986 287.718 225.955C288.246 230.939 288.804 236.029 290.922 240.572C289.766 230.285 288.611 219.998 287.455 209.711C287.312 208.44 287.354 206.824 288.522 206.305C289.511 217.921 290.986 229.496 292.94 240.989C293.172 242.353 291.124 243.133 289.973 242.365C288.822 241.596 288.453 240.1 288.191 238.741C286.284 228.837 285.235 218.768 285.061 208.684C282.632 209.163 280.93 211.517 280.438 213.942C279.947 216.368 280.42 218.873 280.894 221.302C282.416 229.122 283.939 236.942 285.462 244.761C286.174 248.419 286.886 252.197 286.101 255.84C283.078 242.04 280.649 228.112 278.82 214.104C255.629 228.285 225.747 230.922 200.431 221.022C194.901 218.86 189.41 215.994 185.758 211.313C182.881 207.626 181.346 203.047 180.542 198.44C177.686 182.078 183.538 165.388 191.482 150.801C194.497 145.267 197.931 139.501 197.688 133.204C197.604 131.036 197.136 128.635 198.402 126.873ZM312.621 157.247C313.105 156.67 314.123 156.934 314.546 157.557C314.969 158.181 314.97 158.988 314.956 159.741C314.542 182.158 314.814 204.619 316.96 226.936C317.473 232.268 318.088 237.701 316.964 242.938C316.568 243.225 316.171 242.571 316.113 242.086C313.422 219.462 313.016 196.635 312.613 173.855C312.523 168.736 312.432 163.618 312.342 158.499C312.334 158.061 312.34 157.582 312.621 157.247ZM327.938 0.00163269C331.439 0.0736912 334.682 1.74479 337.779 3.37663C352.635 11.2025 367.759 19.2263 379.455 31.2731C379.833 41.3316 377.377 51.2537 375.042 61.0446C365.848 99.5888 358.27 138.518 352.335 177.697C355.806 178.635 359.303 179.476 362.821 180.216C366.107 180.908 369.508 181.551 372.309 183.404C372.148 184.158 371.103 184.217 370.343 184.091C364.156 183.073 358.024 181.72 351.981 180.048C351.921 180.45 351.861 180.853 351.801 181.256C351.225 185.126 350.132 189.692 346.461 191.048C343.828 192.02 340.765 190.777 338.895 188.684C337.024 186.591 336.13 183.813 335.506 181.076C334.987 178.799 334.623 176.488 334.412 174.163C331.635 173.025 328.938 171.682 326.69 169.715C323.856 167.233 321.811 163.572 322.152 159.82C322.229 158.977 322.186 157.796 321.346 157.689C307.335 155.91 293.886 149.917 283.194 140.689C279.844 137.797 276.496 133.753 277.501 129.443C277.908 127.697 278.998 126.191 280.18 124.843C285.337 118.963 292.814 115.172 300.605 114.489C293.731 117.731 286.668 121.109 281.546 126.724C280.864 127.472 280.207 128.278 279.87 129.232C278.798 132.268 281.232 135.349 283.616 137.513C294.603 147.484 308.711 153.964 323.433 155.802C323.699 154.104 325.042 152.73 326.585 151.971C328.128 151.213 329.864 150.968 331.567 150.735C333.535 150.465 335.55 150.207 337.56 150.074C338.837 145.785 340.2 141.514 341.067 137.128C341.805 133.398 342.176 129.606 342.536 125.821C342.839 122.64 343.132 119.459 343.421 116.277C342.836 116.608 342.241 116.923 341.651 117.233C333.51 121.51 325.368 125.787 317.227 130.064C307.792 135.021 296.429 136.182 286.187 133.237C293.514 132.856 300.841 132.474 308.168 132.092C308.766 132.061 309.407 132.015 309.876 131.643C310.562 131.099 310.616 130.094 310.611 129.218C310.502 107.567 310.386 85.8286 307.229 64.4079C306.235 57.6586 304.858 50.7452 301.067 45.0729C296.893 38.8262 290.239 34.7401 283.678 31.0807C271.908 24.5168 259.137 18.5403 245.663 18.8307C234.54 19.0705 223.95 23.5863 214.207 28.9587C206.472 33.224 198.589 38.644 195.532 46.9313C193.844 51.5094 193.818 56.5115 193.899 61.3903C194.189 78.7894 195.58 96.1704 198.061 113.394C198.331 115.27 198.147 117.848 196.282 118.185C193.897 99.7162 191.508 81.2145 190.867 62.6032C190.681 57.2068 190.668 51.6538 192.596 46.61C195.194 39.8122 200.996 34.7711 207.01 30.6725C222.004 20.4531 240.285 14.2304 258.318 16.2507C264.404 16.9325 270.348 18.5253 276.242 20.1872C292.113 24.6622 307.982 29.7517 322.493 37.4948C323.013 28.396 322.291 19.227 320.353 10.3219C320.002 8.70998 319.61 7.04571 319.936 5.42839C320.626 1.99595 324.438 -0.0703896 327.938 0.00163269ZM343.69 177.531C343.917 181.205 344.497 184.83 345.64 188.341C347.113 188.072 347.681 186.298 347.96 184.826C348.315 182.952 348.67 181.078 349.025 179.205C347.238 178.676 345.46 178.116 343.69 177.531ZM338.658 175.786C338.712 176.794 338.782 177.801 338.871 178.806C339.149 181.956 339.664 185.258 341.628 187.736C341.155 184.025 340.877 180.289 340.795 176.549C340.081 176.299 339.369 176.045 338.658 175.786ZM332.624 5.09148C331.729 15.8815 331.36 26.7157 331.521 37.5417C338.429 38.9994 345.18 41.2009 351.62 44.0954C352.917 44.6782 354.281 45.3604 354.981 46.5973C355.553 47.6076 355.586 48.8242 355.604 49.985C355.806 63.6203 355.848 77.2921 354.404 90.8522C353.266 101.542 351.209 112.109 349.443 122.714C347.906 131.945 346.588 141.214 345.491 150.508C346.868 150.813 348.207 151.265 349.488 151.913C350.838 152.595 350.952 154.637 350.059 155.857C349.165 157.077 347.637 157.639 346.172 158.011C345.656 158.142 345.137 158.255 344.617 158.356C344.534 159.151 344.453 159.945 344.373 160.74C343.896 165.494 343.486 170.33 343.591 175.108C345.539 175.736 347.497 176.332 349.464 176.897C357.81 132.904 366.157 88.9115 374.504 44.9186C375.147 41.5288 375.789 38.0239 375.031 34.6579C373.705 28.765 368.475 24.6672 363.432 21.3425C353.723 14.9419 343.388 9.49047 332.624 5.09148ZM341.78 158.774C340.978 158.856 340.173 158.909 339.365 158.939C338.705 163.73 338.435 168.575 338.562 173.41C338.85 173.512 339.137 173.614 339.424 173.714C339.872 173.869 340.32 174.023 340.77 174.175C340.77 172.013 340.835 169.851 340.967 167.693C341.148 164.714 341.454 161.743 341.78 158.774ZM326.249 158.045C324.62 157.845 324.034 160.209 324.466 161.792C325.341 164.997 327.666 167.661 330.402 169.546C331.615 170.381 332.909 171.079 334.247 171.694C334.083 167.932 334.322 164.152 334.965 160.441C335.054 159.928 335.15 159.417 335.253 158.908C332.246 158.769 329.229 158.409 326.249 158.045ZM340.557 152.215C340.232 153.711 339.946 155.216 339.699 156.726C340.477 156.691 341.254 156.628 342.027 156.538C342.186 155.116 342.342 153.694 342.486 152.271C341.846 152.229 341.202 152.214 340.557 152.215ZM336.877 152.399C335.272 152.545 333.668 152.76 332.085 152.975C329.705 153.299 326.972 153.859 325.854 155.984C328.156 155.799 330.482 155.904 332.759 156.296C333.749 156.466 334.747 156.586 335.748 156.663C336.089 155.233 336.473 153.814 336.877 152.399ZM345.246 152.616C345.114 153.77 344.986 154.924 344.86 156.079C345.568 155.932 346.271 155.764 346.967 155.57C347.404 155.448 347.855 155.307 348.187 154.997C348.518 154.686 348.688 154.156 348.455 153.766C348.278 153.47 347.928 153.332 347.601 153.223C346.825 152.967 346.04 152.767 345.246 152.616ZM343.135 142.852C342.345 145.202 341.657 147.585 341.069 149.993C341.614 150.008 342.157 150.038 342.695 150.086C342.912 147.679 343.079 145.269 343.135 142.852ZM231.292 106.271C231.358 107.046 230.46 107.499 229.722 107.743C221.362 110.506 213.426 114.544 206.27 119.673C199.901 124.237 193.776 129.834 186.071 131.259C183.809 131.678 182.351 133.798 180.852 135.542C175.811 141.403 168.175 144.261 160.767 146.471C155.715 147.979 150.085 149.254 145.336 146.965C144.697 146.657 144.051 145.746 144.656 145.376C149.536 147.567 155.214 146.292 160.333 144.739C168.535 142.251 177.072 138.726 181.811 131.585C178.913 131.369 176.506 128.335 177.101 125.491C177.695 122.647 181.294 120.841 183.868 122.189C186.442 123.537 186.924 127.695 184.643 129.495C191.742 128.432 197.754 123.893 203.516 119.611C211.869 113.403 220.928 107.223 231.292 106.271ZM402.944 93.3571C404.826 92.8823 406.822 92.4799 408.687 93.0192C411.713 93.8947 413.523 96.9571 414.678 99.8884C415.832 102.82 416.734 106.026 419.042 108.171C419.569 108.66 420.185 109.12 420.42 109.799C420.655 110.479 420.227 111.43 419.51 111.375C416.482 110.223 414.834 107.004 413.662 103.984C412.49 100.964 411.368 97.6659 408.735 95.778C406.895 103.107 404.095 110.195 400.43 116.803C399.998 117.581 399.504 118.4 398.695 118.769C398.067 119.056 397.346 119.025 396.657 118.986C387.998 118.499 379.357 117.694 370.757 116.576C369.842 116.457 369.096 117.455 369.115 118.378C369.134 119.3 369.671 120.123 370.188 120.887C372.233 123.913 374.277 126.94 376.322 129.965C377.312 131.429 378.36 132.947 379.912 133.792C381.986 134.92 384.527 134.619 386.833 134.108C398.995 131.41 409.473 123.906 419.282 116.226C419.898 115.744 420.714 115.237 421.405 115.604C422.008 115.925 422.129 116.788 421.845 117.409C421.561 118.03 420.99 118.462 420.441 118.869C409.901 126.678 398.823 134.722 385.881 136.861C383.376 137.275 380.641 137.417 378.466 136.109C377.181 135.337 376.223 134.132 375.313 132.94C373.234 130.215 371.249 127.417 369.365 124.552C368.375 123.047 367.394 121.476 367.058 119.706C366.167 115.019 369.945 110.809 373.679 107.84C382.261 101.013 392.311 96.0399 402.944 93.3571ZM344.275 134.317C343.643 134.629 343.374 135.511 343.726 136.123L343.758 136.047C344.381 135.767 344.642 134.892 344.275 134.317ZM292.625 100.379C293.27 100.188 293.997 100.005 294.587 100.329C295.176 100.653 295.283 101.724 294.635 101.904C264.455 110.28 234.617 119.89 205.222 130.704C204.643 130.917 204.029 131.134 203.422 131.022C202.815 130.91 202.249 130.335 202.382 129.733C202.508 129.165 203.136 128.885 203.685 128.69C233.016 118.304 262.787 109.204 292.625 100.379ZM181.748 123.177C181.335 123.178 180.928 123.31 180.565 123.508C179.288 124.207 178.569 125.849 179.035 127.229C179.544 128.736 181.19 129.57 182.763 129.811C183.435 128.624 184.126 127.365 184.117 126.001C184.108 124.636 183.112 123.176 181.748 123.177ZM347.854 112.738C347.367 113.371 346.804 113.927 346.191 114.431C345.851 119.43 345.511 124.428 345.171 129.426C346.267 123.799 347.225 118.146 348.05 112.472C347.986 112.561 347.922 112.651 347.854 112.738ZM266.349 20.0553C281.47 26.1455 297.832 33.3325 305.224 47.862C308.351 54.0101 309.539 60.9411 310.47 67.776C313.238 88.0973 314.084 108.68 312.993 129.16C321.779 124.889 330.566 120.62 339.353 116.349C340.84 115.626 342.374 114.858 343.642 113.82C344.911 99.6252 346.037 85.4176 347.018 71.1999C346.89 68.6803 346.733 66.162 346.547 63.6462C346.811 64.786 347.06 65.9293 347.298 67.0749C347.336 66.5052 347.376 65.9356 347.414 65.3659C347.603 62.5151 347.775 59.5738 346.841 56.8737C345.18 52.0715 340.341 49.0359 335.454 47.6442C332.651 46.8461 329.7 46.4447 327.104 45.1217C325.074 44.0878 323.254 42.2868 322.646 40.1608C304.823 31.3367 285.493 25.6564 266.349 20.0553ZM406.093 95.1979C404.338 95.0052 402.601 95.5973 400.945 96.2087C395.715 98.1398 390.588 100.352 385.595 102.831C380.319 105.45 375.039 108.498 371.485 113.195C378.626 113.992 385.767 114.789 392.908 115.586C394.253 115.736 395.706 115.864 396.874 115.18C397.792 114.643 398.375 113.69 398.899 112.765C402.031 107.247 404.454 101.328 406.093 95.1979ZM346.574 108.807C346.82 107.601 346.906 106.34 346.972 105.111C347.079 103.109 347.164 101.106 347.234 99.1022C347.014 102.337 346.794 105.572 346.574 108.807ZM302.268 60.2516C302.994 59.906 303.883 59.6645 304.575 60.0739C305.267 60.4835 305.291 61.7846 304.502 61.9352C302.061 62.4 300.146 64.4309 299.181 66.7204C298.215 69.0099 298.047 71.5476 297.96 74.0309C297.697 81.5398 298.053 89.0706 299.023 96.5212C299.172 97.6599 299.348 98.833 299.946 99.8132C300.545 100.793 301.679 101.538 302.809 101.33C304.742 100.973 306.819 101.483 308.367 102.696C306.046 102.843 303.724 102.991 301.402 103.138C300.026 103.226 298.385 103.189 297.619 102.043C297.244 101.48 297.182 100.771 297.131 100.096C296.632 93.4789 296.134 86.8613 295.636 80.2438C295.354 76.5089 295.077 72.7062 295.914 69.0553C296.751 65.4047 298.886 61.8613 302.268 60.2516ZM333.134 92.196C333.155 91.8001 333.685 91.5962 334.046 91.7604C334.407 91.9247 334.608 92.3123 334.734 92.6882C335.194 94.06 334.957 95.6454 334.118 96.8239C333.46 96.0899 334.271 94.9212 334.064 93.9567C333.925 93.3039 333.33 92.8339 333.134 92.196ZM331.857 40.9714C330.957 40.7955 329.802 40.8389 329.037 41.2321C329.166 41.3108 329.295 41.3882 329.424 41.4675C330.483 42.1207 331.638 43.0092 332.041 44.1032C336.979 46.1436 341.916 48.1849 346.854 50.2253C347.947 50.677 349.112 51.1882 349.729 52.1969C350.335 53.1863 350.276 54.4293 350.197 55.5866C349.741 62.2878 349.284 68.9889 348.828 75.6901C349.654 81.2569 350.174 86.8691 350.384 92.4928C351.528 79.5627 351.973 66.5705 351.709 53.5925C351.67 51.6731 351.566 49.6105 350.393 48.0915C349.532 46.9783 348.218 46.3258 346.934 45.7507C342.112 43.5909 337.043 41.9843 331.857 40.9714ZM327.827 2.6237C326.291 1.6054 324.071 2.65514 323.215 4.28777C322.359 5.9205 322.49 7.87545 322.684 9.70866C323.712 19.4336 325.917 29.1765 325.044 38.8903C325.676 39.2456 326.304 39.6081 326.931 39.9743C327.623 39.6264 328.223 39.0269 328.58 38.3356C329.264 37.0116 329.282 35.4566 329.284 33.9665C329.3 25.0092 329.315 16.0517 329.331 7.09441C329.334 5.45208 329.196 3.53117 327.827 2.6237Z" fill="#303030"/>
<path fill-rule="evenodd" clip-rule="evenodd" d="M413.53 265.909C412.217 266.485 410.796 267.022 409.383 266.779C407.971 266.536 406.649 265.21 406.933 263.804C409.527 250.957 406.27 237.045 398.241 226.686C395.428 223.055 392.078 219.86 389.336 216.175C387.609 213.852 386.072 210.932 386.948 208.174C388.195 204.248 393.216 203.293 397.325 203.013C406.877 202.362 416.43 201.711 425.982 201.06C430.383 200.76 435.453 200.716 438.391 204.006C446.57 213.168 462.511 213.783 471.371 205.279C472.743 203.963 474.469 206.583 474.415 208.483C474.244 214.456 471.782 220.334 467.646 224.647C466.67 225.665 465.422 226.661 464.02 226.515C462.618 226.37 461.584 224.356 462.702 223.497C465.1 221.655 467.543 219.766 469.225 217.252C470.907 214.739 471.722 211.443 470.575 208.644C464.405 216.451 458.176 224.21 451.888 231.922C440.985 245.293 429.326 258.97 413.53 265.909ZM430.76 226.562C429.19 226.996 427.517 226.662 425.95 226.22C414.675 223.034 404.288 214.225 392.755 216.287C406.203 227.117 413.343 245.276 410.873 262.365C419.733 260.468 426.73 253.853 433.005 247.317C442.294 237.642 451.114 227.517 459.423 216.99C453.45 216.941 447.5 215.218 442.426 212.068C436.156 213.619 436.984 224.84 430.76 226.562ZM438.948 208.774C435.212 204.371 428.501 204.508 422.749 205.013C415.247 205.672 407.745 206.331 400.243 206.989C397.197 207.257 393.699 207.792 392.111 210.404C405.096 213.123 417.754 217.392 429.733 223.093C431.274 218.254 434.361 213.92 438.432 210.884C438.89 210.543 439.414 210.105 439.353 209.537C439.322 209.246 439.137 208.997 438.948 208.774V208.774Z" fill="#4D3594"/>
<path fill-rule="evenodd" clip-rule="evenodd" d="M137.919 167.264C126.62 162.745 113.155 164.085 102.968 170.742C101.981 171.387 100.563 170.668 100.075 169.596C99.587 168.524 99.7696 167.276 100.019 166.125C103.273 151.125 116.234 139.648 130.648 134.374C145.062 129.099 160.828 129.085 176.15 129.986C177.67 130.076 179.259 130.195 180.556 130.993C181.853 131.792 182.726 133.499 182.079 134.878C176.052 147.736 171.512 161.29 168.578 175.185C168.102 177.438 165.772 178.933 163.477 179.12C161.182 179.308 158.933 178.46 156.85 177.478C150.359 174.417 144.582 169.928 137.919 167.264ZM139.211 152.086C138.204 152.904 136.63 152.472 135.682 151.586C134.735 150.7 134.195 149.473 133.45 148.411C129.455 142.712 120.287 143.185 114.852 147.533C109.418 151.881 106.788 158.752 104.394 165.286C120.337 158.361 139.973 160.847 153.689 171.525C155.561 172.983 157.419 174.626 159.725 175.187C162.031 175.748 164.936 174.74 165.52 172.439C168.641 160.151 172.486 148.047 177.029 136.21C168.311 147.045 150.004 143.317 139.211 152.086ZM135.742 145.538C136.637 146.663 138.262 146.961 139.677 146.708C141.092 146.454 142.378 145.749 143.697 145.176C148.236 143.203 153.264 142.762 158.13 141.86C162.997 140.958 168.017 139.431 171.443 135.859C163.713 135.835 155.983 135.812 148.253 135.789C140.485 135.765 132.114 135.93 125.873 140.556C129.672 140.695 133.374 142.564 135.742 145.538Z" fill="#4D3594"/>
<path fill-rule="evenodd" clip-rule="evenodd" d="M312.113 148.959C312.103 145.36 312.093 141.761 312.084 138.162C312.081 137.128 312.078 136.095 312.075 135.061C312.073 134.349 312.193 133.457 312.87 133.235C313.383 133.068 313.946 133.436 314.186 133.919C314.426 134.401 314.423 134.964 314.415 135.503C314.34 140.526 314.265 145.548 314.19 150.57C314.18 151.292 314.059 152.181 313.382 152.434C312.254 151.796 312.116 150.255 312.113 148.959H312.113Z" fill="#303030"/>
<path fill-rule="evenodd" clip-rule="evenodd" d="M304.927 145.628C304.406 145.856 304.138 144.998 304.218 144.435C304.506 142.42 304.795 140.4 305.285 138.424C305.591 137.194 306.03 135.9 307.046 135.142C308.062 134.384 309.807 134.517 310.304 135.683C310.545 136.248 310.445 136.893 310.334 137.497C309.65 141.235 308.729 144.931 307.578 148.553C307.529 148.707 307.475 148.867 307.359 148.979C307.076 149.25 306.565 149.067 306.368 148.728C306.172 148.388 306.198 147.969 306.229 147.578C306.697 147.543 306.915 146.993 307.027 146.538C307.486 144.678 307.945 142.818 308.404 140.958C308.761 139.511 309.086 137.863 308.255 136.625C307.402 137.151 307.081 138.214 306.827 139.183C306.316 141.134 305.806 143.084 305.295 145.035C305.233 145.268 305.148 145.531 304.927 145.628L304.927 145.628Z" fill="#303030"/>
</svg>
