<svg width="95" height="95" viewBox="0 0 95 95" fill="none" xmlns="http://www.w3.org/2000/svg">
<rect width="95" height="95" rx="47.5" fill="#3B5998"/>
<path d="M47.5002 23.4299C34.2085 23.4299 23.3335 34.2808 23.3335 47.6449C23.3335 59.7283 32.1785 69.7574 43.7302 71.5699V54.6533H37.5918V47.6449H43.7302V42.3041C43.7302 36.2383 47.331 32.9033 52.8652 32.9033C55.4993 32.9033 58.2543 33.3624 58.2543 33.3624V39.3316H55.2093C52.2127 39.3316 51.2702 41.1924 51.2702 43.1016V47.6449H57.9885L56.901 54.6533H51.2702V71.5699C56.9649 70.6705 62.1505 67.7649 65.8908 63.3776C69.6312 58.9902 71.6798 53.4102 71.6668 47.6449C71.6668 34.2808 60.7918 23.4299 47.5002 23.4299Z" fill="white"/>
</svg>
