<svg width="18" height="18" viewBox="0 0 18 18" fill="none" xmlns="http://www.w3.org/2000/svg">
<path d="M7.33366 2.33334V5.66667H10.667V2.33334H7.33366ZM12.3337 2.33334V5.66667H15.667V2.33334H12.3337ZM12.3337 7.33334V10.6667H15.667V7.33334H12.3337ZM12.3337 12.3333V15.6667H15.667V12.3333H12.3337ZM10.667 15.6667V12.3333H7.33366V15.6667H10.667ZM5.66699 15.6667V12.3333H2.33366V15.6667H5.66699ZM5.66699 10.6667V7.33334H2.33366V10.6667H5.66699ZM5.66699 5.66667V2.33334H2.33366V5.66667H5.66699ZM7.33366 10.6667H10.667V7.33334H7.33366V10.6667ZM2.33366 0.666672H15.667C16.109 0.666672 16.5329 0.842266 16.8455 1.15483C17.1581 1.46739 17.3337 1.89131 17.3337 2.33334V15.6667C17.3337 16.1087 17.1581 16.5326 16.8455 16.8452C16.5329 17.1577 16.109 17.3333 15.667 17.3333H2.33366C1.43366 17.3333 0.666992 16.5833 0.666992 15.6667V2.33334C0.666992 1.89131 0.842587 1.46739 1.15515 1.15483C1.46771 0.842266 1.89163 0.666672 2.33366 0.666672Z" fill="#1E1E1E"/>
</svg>
