<svg width="96" height="95" viewBox="0 0 96 95" fill="none" xmlns="http://www.w3.org/2000/svg">
<rect width="96" height="95" rx="47.5" fill="#25D366"/>
<path d="M48.0665 30.8333C38.9665 30.8333 31.5498 38.2499 31.5498 47.3499C31.5498 50.2666 32.3165 53.0999 33.7498 55.5999L31.4165 64.1666L40.1665 61.8666C42.5832 63.1833 45.2998 63.8833 48.0665 63.8833C57.1665 63.8833 64.5832 56.4666 64.5832 47.3666C64.5832 42.9499 62.8665 38.7999 59.7498 35.6833C56.6332 32.5499 52.4832 30.8333 48.0665 30.8333ZM48.0832 33.6166C51.7498 33.6166 55.1832 35.0499 57.7832 37.6499C60.3665 40.2499 61.7998 43.6999 61.7998 47.3666C61.7998 54.9333 55.6332 61.0833 48.0665 61.0833C45.5998 61.0833 43.1832 60.4333 41.0832 59.1666L40.5832 58.8833L35.3832 60.2499L36.7665 55.1833L36.4332 54.6499C35.0665 52.4999 34.3332 49.9499 34.3332 47.3499C34.3498 39.7833 40.4998 33.6166 48.0832 33.6166ZM42.2165 39.7166C41.9498 39.7166 41.4998 39.8166 41.1165 40.2333C40.7498 40.6499 39.6665 41.6666 39.6665 43.6833C39.6665 45.7166 41.1498 47.6666 41.3332 47.9499C41.5665 48.2333 44.2665 52.3999 48.4165 54.1666C49.3998 54.6166 50.1665 54.8666 50.7665 55.0499C51.7498 55.3666 52.6498 55.3166 53.3665 55.2166C54.1665 55.0999 55.7998 54.2166 56.1498 53.2499C56.4998 52.2833 56.4998 51.4666 56.3998 51.2833C56.2832 51.1166 56.0165 51.0166 55.5998 50.8333C55.1832 50.5999 53.1498 49.5999 52.7832 49.4666C52.3998 49.3333 52.1665 49.2666 51.8498 49.6666C51.5832 50.0833 50.7832 51.0166 50.5498 51.2833C50.2998 51.5666 50.0665 51.5999 49.6665 51.3999C49.2332 51.1833 47.8998 50.7499 46.3332 49.3499C45.0998 48.2499 44.2832 46.8999 44.0332 46.4833C43.8332 46.0833 44.0165 45.8333 44.2165 45.6499C44.3998 45.4666 44.6665 45.1666 44.8332 44.9166C45.0498 44.6833 45.1165 44.4999 45.2498 44.2333C45.3832 43.9499 45.3165 43.7166 45.2165 43.5166C45.1165 43.3333 44.2832 41.2666 43.9332 40.4499C43.5998 39.6499 43.2665 39.7499 42.9998 39.7333C42.7665 39.7333 42.4998 39.7166 42.2165 39.7166Z" fill="white"/>
</svg>
