<svg width="25" height="24" viewBox="0 0 25 24" fill="none" xmlns="http://www.w3.org/2000/svg">
<path d="M12.8967 6.5C13.5598 6.5 14.1957 6.76339 14.6645 7.23223C15.1333 7.70107 15.3967 8.33696 15.3967 9C15.3967 9.3283 15.3321 9.65339 15.2064 9.95671C15.0808 10.26 14.8966 10.5356 14.6645 10.7678C14.4323 10.9999 14.1568 11.1841 13.8534 11.3097C13.5501 11.4353 13.225 11.5 12.8967 11.5C12.2337 11.5 11.5978 11.2366 11.129 10.7678C10.6601 10.2989 10.3967 9.66304 10.3967 9C10.3967 8.33696 10.6601 7.70107 11.129 7.23223C11.5978 6.76339 12.2337 6.5 12.8967 6.5ZM12.8967 2C14.7532 2 16.5337 2.7375 17.8465 4.05025C19.1592 5.36301 19.8967 7.14348 19.8967 9C19.8967 14.25 12.8967 22 12.8967 22C12.8967 22 5.89673 14.25 5.89673 9C5.89673 7.14348 6.63423 5.36301 7.94698 4.05025C9.25974 2.7375 11.0402 2 12.8967 2ZM12.8967 4C11.5706 4 10.2989 4.52678 9.36119 5.46447C8.42351 6.40215 7.89673 7.67392 7.89673 9C7.89673 10 7.89673 12 12.8967 18.71C17.8967 12 17.8967 10 17.8967 9C17.8967 7.67392 17.3699 6.40215 16.4323 5.46447C15.4946 4.52678 14.2228 4 12.8967 4Z" fill="#1E1E1E"/>
</svg>
