<svg width="11" height="14" viewBox="0 0 11 14" fill="none" xmlns="http://www.w3.org/2000/svg">
<path d="M7.29334 11.6667L5.33334 10.5133L3.37334 11.6667L3.89334 9.44L2.16667 7.94667L4.44001 7.75333L5.33334 5.66667L6.22667 7.75333L8.50001 7.94667L6.77334 9.44M10.6667 0H7.88943e-06V1.33333L3.24001 3.76C2.10961 4.24239 1.18051 5.10038 0.609832 6.18887C0.039151 7.27737 -0.138084 8.52955 0.108101 9.73366C0.354285 10.9378 1.00878 12.0199 1.9609 12.7971C2.91302 13.5742 4.10432 13.9987 5.33334 13.9987C6.56236 13.9987 7.75367 13.5742 8.70578 12.7971C9.6579 12.0199 10.3124 10.9378 10.5586 9.73366C10.8048 8.52955 10.6275 7.27737 10.0569 6.18887C9.48617 5.10038 8.55707 4.24239 7.42667 3.76L10.6667 1.33333M9.33334 8.66667C9.3337 9.42418 9.11894 10.1662 8.71407 10.8065C8.30919 11.4467 7.73083 11.9588 7.04629 12.2832C6.36175 12.6076 5.59916 12.731 4.84726 12.6389C4.09536 12.5468 3.38505 12.2432 2.79898 11.7632C2.21291 11.2833 1.77518 10.6468 1.53671 9.92776C1.29824 9.20876 1.26884 8.43682 1.45193 7.70176C1.63502 6.9667 2.02307 6.29875 2.57094 5.7756C3.1188 5.25246 3.80395 4.89564 4.54667 4.74667C5.06569 4.63997 5.60099 4.63997 6.12001 4.74667C7.02596 4.92839 7.84106 5.41814 8.42683 6.13273C9.0126 6.84732 9.33291 7.74267 9.33334 8.66667ZM5.75334 3.33333H4.91334L2.24667 1.33333H8.47334L5.75334 3.33333Z" fill="#BF6A02"/>
</svg>
