<svg width="56" height="56" viewBox="0 0 56 56" fill="none" xmlns="http://www.w3.org/2000/svg">
<rect width="56" height="56" rx="28" fill="#CFF7D3"/>
<path d="M34.6027 27.0647C34.3343 26.7147 34.0077 26.4114 33.7043 26.108C32.9227 25.408 32.036 24.9064 31.2893 24.1714C29.551 22.468 29.166 19.6564 30.2743 17.498C29.166 17.7664 28.1977 18.373 27.3693 19.038C24.3477 21.4647 23.1577 25.7464 24.581 29.4214C24.6277 29.538 24.6743 29.6547 24.6743 29.8064C24.6743 30.063 24.4993 30.2964 24.266 30.3897C23.9977 30.5064 23.7177 30.4364 23.496 30.2497C23.426 30.1914 23.3793 30.133 23.3327 30.0514C22.0143 28.383 21.8043 25.9914 22.691 24.078C20.7427 25.6647 19.681 28.348 19.8327 30.8797C19.9027 31.463 19.9727 32.0464 20.171 32.6297C20.3343 33.3297 20.6493 34.0297 20.9993 34.648C22.2593 36.6664 24.441 38.113 26.786 38.4047C29.2827 38.7197 31.9543 38.2647 33.8677 36.538C36.0027 34.6014 36.7493 31.498 35.6527 28.838L35.501 28.5347C35.256 27.998 34.6027 27.0647 34.6027 27.0647ZM30.916 34.4147C30.5893 34.6947 30.0527 34.998 29.6327 35.1147C28.326 35.5814 27.0193 34.928 26.2493 34.158C27.6377 33.8314 28.466 32.8047 28.711 31.7664C28.9093 30.833 28.536 30.063 28.3843 29.1647C28.2443 28.3014 28.2677 27.5664 28.5827 26.7614C28.8043 27.2047 29.0377 27.648 29.3177 27.998C30.216 29.1647 31.6277 29.678 31.931 31.2647C31.9777 31.428 32.001 31.5914 32.001 31.7664C32.036 32.723 31.616 33.773 30.916 34.4147Z" fill="#009951"/>
</svg>
