<svg width="40" height="40" viewBox="0 0 40 40" fill="none" xmlns="http://www.w3.org/2000/svg">
<rect width="40" height="40" rx="8" fill="#FFDADF"/>
<path d="M25.66 19.2C25.43 18.9 25.15 18.64 24.89 18.38C24.22 17.78 23.46 17.35 22.82 16.72C21.33 15.26 21 12.85 21.95 11C21 11.23 20.17 11.75 19.46 12.32C16.87 14.4 15.85 18.07 17.07 21.22C17.11 21.32 17.15 21.42 17.15 21.55C17.15 21.77 17 21.97 16.8 22.05C16.57 22.15 16.33 22.09 16.14 21.93C16.08 21.88 16.04 21.83 16 21.76C14.87 20.33 14.69 18.28 15.45 16.64C13.78 18 12.87 20.3 13 22.47C13.06 22.97 13.12 23.47 13.29 23.97C13.43 24.57 13.7 25.17 14 25.7C15.08 27.43 16.95 28.67 18.96 28.92C21.1 29.19 23.39 28.8 25.0301 27.32C26.8601 25.66 27.5 23 26.56 20.72L26.43 20.46C26.22 20 25.66 19.2 25.66 19.2ZM22.5 25.5C22.22 25.74 21.76 26 21.4 26.1C20.28 26.5 19.16 25.94 18.5 25.28C19.69 25 20.4 24.12 20.61 23.23C20.78 22.43 20.46 21.77 20.33 21C20.21 20.26 20.23 19.63 20.5 18.94C20.69 19.32 20.89 19.7 21.13 20C21.9 21 23.11 21.44 23.37 22.8C23.41 22.94 23.43 23.08 23.43 23.23C23.46 24.05 23.1 24.95 22.5 25.5Z" fill="#6B0F1A"/>
</svg>
