<svg width="312" height="230" viewBox="0 0 312 230" fill="none" xmlns="http://www.w3.org/2000/svg">
<mask id="path-1-inside-1_270_1757" fill="white">
<path d="M-184 -18C-184 47.7737 -157.872 110.853 -111.363 157.362C-64.8535 203.871 -1.77371 230 64 230C129.774 230 192.853 203.872 239.362 157.363C285.871 110.853 312 47.7737 312 -18L203.874 -18C203.874 19.097 189.138 54.6745 162.906 80.906C136.675 107.138 101.097 121.874 64 121.874C26.903 121.874 -8.67453 107.138 -34.906 80.9061C-61.1376 54.6745 -75.8743 19.097 -75.8742 -18L-184 -18Z"/>
</mask>
<path d="M-184 -18C-184 47.7737 -157.872 110.853 -111.363 157.362C-64.8535 203.871 -1.77371 230 64 230C129.774 230 192.853 203.872 239.362 157.363C285.871 110.853 312 47.7737 312 -18L203.874 -18C203.874 19.097 189.138 54.6745 162.906 80.906C136.675 107.138 101.097 121.874 64 121.874C26.903 121.874 -8.67453 107.138 -34.906 80.9061C-61.1376 54.6745 -75.8743 19.097 -75.8742 -18L-184 -18Z" stroke="#AEA8E2" stroke-width="200" mask="url(#path-1-inside-1_270_1757)"/>
</svg>
