<svg width="276" height="44" viewBox="0 0 276 44" fill="none" xmlns="http://www.w3.org/2000/svg">
<mask id="path-1-inside-1_270_1758" fill="white">
<path d="M276 138C276 101.4 261.461 66.2993 235.581 40.4193C209.701 14.5392 174.6 -1.00162e-05 138 -8.41635e-06C101.4 -6.81652e-06 66.2993 14.5392 40.4193 40.4193C14.5392 66.2993 -5.05743e-07 101.4 -6.03217e-06 138L60.1667 138C60.1667 117.357 68.367 97.5601 82.9636 82.9636C97.5601 68.367 117.357 60.1667 138 60.1667C158.643 60.1667 178.44 68.367 193.036 82.9636C207.633 97.5601 215.833 117.357 215.833 138L276 138Z"/>
</mask>
<path d="M276 138C276 101.4 261.461 66.2993 235.581 40.4193C209.701 14.5392 174.6 -1.00162e-05 138 -8.41635e-06C101.4 -6.81652e-06 66.2993 14.5392 40.4193 40.4193C14.5392 66.2993 -5.05743e-07 101.4 -6.03217e-06 138L60.1667 138C60.1667 117.357 68.367 97.5601 82.9636 82.9636C97.5601 68.367 117.357 60.1667 138 60.1667C158.643 60.1667 178.44 68.367 193.036 82.9636C207.633 97.5601 215.833 117.357 215.833 138L276 138Z" stroke="#AEA8E2" stroke-width="200" mask="url(#path-1-inside-1_270_1758)"/>
</svg>
