<svg width="165" height="102" viewBox="0 0 165 102" fill="none" xmlns="http://www.w3.org/2000/svg">
<mask id="path-1-inside-1_270_1764" fill="white">
<path d="M70.7441 421.448C24.7427 374.437 -0.69941 311.077 0.0146504 245.307C0.728754 179.538 27.5405 116.745 74.5517 70.7439C121.563 24.7426 184.923 -0.699532 250.692 0.014534C316.462 0.728604 379.255 27.5404 425.256 74.5516L347.974 150.173C322.029 123.659 286.613 108.537 249.519 108.134C212.424 107.731 176.688 122.081 150.174 148.026C123.659 173.971 108.537 209.387 108.134 246.481C107.731 283.576 122.081 319.312 148.026 345.826L70.7441 421.448Z"/>
</mask>
<path d="M70.7441 421.448C24.7427 374.437 -0.69941 311.077 0.0146504 245.307C0.728754 179.538 27.5405 116.745 74.5517 70.7439C121.563 24.7426 184.923 -0.699532 250.692 0.014534C316.462 0.728604 379.255 27.5404 425.256 74.5516L347.974 150.173C322.029 123.659 286.613 108.537 249.519 108.134C212.424 107.731 176.688 122.081 150.174 148.026C123.659 173.971 108.537 209.387 108.134 246.481C107.731 283.576 122.081 319.312 148.026 345.826L70.7441 421.448Z" stroke="#C5C1E3" stroke-width="200" mask="url(#path-1-inside-1_270_1764)"/>
</svg>
