<svg width="429" height="408" viewBox="0 0 429 408" fill="none" xmlns="http://www.w3.org/2000/svg">
<path d="M175.823 194.157L154.94 209.576C148.31 214.471 139.422 212.839 134.771 206.541L17.2893 47.4265C12.3943 40.7968 14.0268 31.9084 20.325 27.2581L41.2088 11.8386C47.8385 6.9435 56.7269 8.57599 61.3772 14.8743L178.859 173.988C183.509 180.287 182.453 189.262 175.823 194.157Z" stroke="#4D3594" stroke-opacity="0.23" stroke-width="28.8438" stroke-miterlimit="10"/>
<path d="M538.931 271.794C641.82 195.826 663.643 50.8343 587.676 -52.0542C511.708 -154.943 366.716 -176.766 263.828 -100.799C160.939 -24.8311 139.116 120.161 215.083 223.049C291.051 325.938 436.043 347.761 538.931 271.794Z" stroke="#4D3594" stroke-opacity="0.23" stroke-width="28.8438" stroke-miterlimit="10"/>
</svg>
